<svg width="55" height="56" viewBox="0 0 55 56" fill="none" xmlns="http://www.w3.org/2000/svg">
<path d="M39.7222 24.7408V15.5742H30.5556V9.46305H39.7222V0.296387H45.8333V9.46305H55V15.5742H45.8333V24.7408H39.7222ZM51.7917 55.2964C45.4259 55.2964 39.1366 53.9087 32.9236 51.1332C26.7106 48.3577 21.0579 44.4237 15.9653 39.3311C10.8727 34.2385 6.93866 28.5857 4.16319 22.3728C1.38773 16.1598 0 9.87046 0 3.50472C0 2.58805 0.305556 1.82416 0.916667 1.21305C1.52778 0.601942 2.29167 0.296387 3.20833 0.296387H15.5833C16.2963 0.296387 16.9329 0.538285 17.4931 1.02208C18.0532 1.50588 18.3843 2.07879 18.4861 2.74083L20.4722 13.4353C20.5741 14.2501 20.5486 14.9376 20.3958 15.4978C20.2431 16.058 19.963 16.5418 19.5556 16.9492L12.1458 24.4353C13.1644 26.3195 14.3738 28.1401 15.7743 29.8971C17.1748 31.654 18.7153 33.3473 20.3958 34.9769C21.9745 36.5556 23.6296 38.0198 25.3611 39.3693C27.0926 40.7188 28.9259 41.9538 30.8611 43.0742L38.0417 35.8936C38.5 35.4353 39.0984 35.0915 39.8368 34.8624C40.5752 34.6332 41.3009 34.5695 42.0139 34.6714L52.5556 36.8103C53.2685 37.014 53.8542 37.3832 54.3125 37.9179C54.7708 38.4526 55 39.051 55 39.7131V52.0881C55 53.0047 54.6944 53.7686 54.0833 54.3797C53.4722 54.9908 52.7083 55.2964 51.7917 55.2964ZM9.24306 18.6297L14.2847 13.5881L12.9861 6.4075H6.1875C6.44213 8.49546 6.79861 10.558 7.25694 12.595C7.71528 14.632 8.37732 16.6436 9.24306 18.6297ZM36.5903 45.9769C38.5764 46.8427 40.6007 47.5302 42.6632 48.0394C44.7257 48.5487 46.8009 48.8797 48.8889 49.0325V42.3103L41.7083 40.8589L36.5903 45.9769Z" fill="#3DB54A"/>
</svg>
