<svg width="41" height="99" viewBox="0 0 41 99" fill="none" xmlns="http://www.w3.org/2000/svg">
<g clip-path="url(#clip0_14_496)">
<mask id="mask0_14_496" style="mask-type:luminance" maskUnits="userSpaceOnUse" x="0" y="-1" width="41" height="100">
<path d="M40.85 -0.0100098H0V98.63H40.85V-0.0100098Z" fill="white"/>
</mask>
<g mask="url(#mask0_14_496)">
<path d="M40.34 16.47C40.34 19.7275 39.3741 22.9118 37.5643 25.6203C35.7546 28.3287 33.1823 30.4397 30.1728 31.6863C27.1633 32.9329 23.8517 33.259 20.6569 32.6235C17.462 31.988 14.5273 30.4194 12.2239 28.1161C9.92057 25.8127 8.35199 22.878 7.71649 19.6831C7.081 16.4883 7.40711 13.1767 8.65369 10.1672C9.90026 7.15771 12.0113 4.58544 14.7198 2.7757C17.4283 0.965949 20.6125 0 23.87 0C28.2381 0 32.4273 1.73524 35.5161 4.82396C38.6048 7.91268 40.34 12.1019 40.34 16.47Z" fill="white"/>
</g>
<path d="M0 37.5899H40.85L0 18.9199V37.5899Z" fill="#4AB755"/>
<path d="M22.68 50.8701L7.08 81.3801L15.91 98.6401L40.34 50.8701H22.68Z" fill="white"/>
</g>
<defs>
<clipPath id="clip0_14_496">
<rect width="40.85" height="98.64" fill="white"/>
</clipPath>
</defs>
</svg>
