<svg width="181" height="54" viewBox="0 0 181 54" fill="none" xmlns="http://www.w3.org/2000/svg">
<path d="M37.9631 0H0V53.7517H37.9631V0Z" fill="#276A35"/>
<path d="M27.4041 43.193H19.1203C16.8517 43.19 14.6768 42.2875 13.0726 40.6833C11.4684 39.0792 10.5659 36.9043 10.563 34.6356V27.7487H5.28027V23.4678H20.3274C22.2054 23.4701 24.0057 24.218 25.3327 25.547C26.6596 26.876 27.4047 28.6775 27.4041 30.5555V43.193ZM14.8461 27.7465V34.6334C14.8472 35.7666 15.2979 36.8531 16.0993 37.6545C16.9006 38.4558 17.9871 38.9065 19.1203 38.9077H23.121V30.5555C23.1204 29.8146 22.826 29.1041 22.3023 28.58C21.7785 28.0559 21.0683 27.7609 20.3274 27.7597L14.8461 27.7465Z" fill="white"/>
<path d="M21.0667 10.5586H14.7314V14.8417H21.0667V10.5586Z" fill="white"/>
<path d="M14.7313 14.8423H10.4482V21.1776H14.7313V14.8423Z" fill="#00BF4D"/>
<path d="M76.809 19.1383L73.7065 22.2077C71.7426 20.132 69.4535 19.0934 66.8394 19.092C64.5592 19.092 62.6512 19.8474 61.1154 21.3582C60.3693 22.0676 59.7789 22.9243 59.3816 23.8739C58.9842 24.8236 58.7887 25.8455 58.8072 26.8748C58.7911 27.9338 58.9956 28.9846 59.4078 29.9602C59.82 30.9358 60.4308 31.8149 61.2014 32.5415C62.7976 34.0949 64.7666 34.8709 67.1086 34.8695C68.6312 34.8695 69.9147 34.5495 70.9592 33.9096C72.0037 33.2696 72.8466 32.2678 73.488 30.9041H66.7842V26.7711H78.4287L78.4618 27.7464C78.4617 29.7726 77.9176 31.7617 76.8863 33.5058C75.9258 35.2306 74.5187 36.6651 72.8128 37.6587C71.1446 38.6134 69.188 39.0908 66.9431 39.0908C64.5408 39.0908 62.3982 38.5693 60.5152 37.5263C58.6363 36.4881 57.0877 34.9418 56.0467 33.0644C54.957 31.1636 54.3891 29.0084 54.4006 26.8174C54.3592 23.8636 55.4459 21.0053 57.4391 18.825C59.8399 16.1284 62.966 14.7802 66.8173 14.7802C68.7565 14.7658 70.6784 15.1457 72.4663 15.8967C73.9448 16.5278 75.3924 17.6084 76.809 19.1383Z" fill="#276A35"/>
<path d="M89.4288 20.9479C91.0282 20.9434 92.6003 21.3621 93.9855 22.1616C95.3629 22.9372 96.5084 24.0665 97.3036 25.4327C98.0988 26.7989 98.515 28.3526 98.5091 29.9334C98.5157 31.5242 98.1 33.0883 97.3043 34.4658C96.5305 35.8426 95.3961 36.9823 94.023 37.7626C92.6282 38.5543 91.048 38.9609 89.4442 38.9409C88.2728 38.9585 87.1102 38.7351 86.0287 38.2846C84.9472 37.834 83.9699 37.1658 83.1575 36.3216C82.3038 35.4529 81.6337 34.4211 81.1873 33.2879C80.7408 32.1547 80.527 30.9432 80.5587 29.7256C80.5905 28.508 80.867 27.3092 81.3718 26.2008C81.8767 25.0923 82.5996 24.0969 83.4973 23.2737C85.103 21.7664 87.2265 20.9338 89.4288 20.9479ZM89.4994 24.9927C88.8769 24.9764 88.2579 25.0921 87.6833 25.332C87.1086 25.572 86.5912 25.9309 86.1652 26.3851C85.2825 27.3148 84.8412 28.5027 84.8412 29.9488C84.8412 31.4391 85.2825 32.6453 86.1652 33.5677C86.5918 34.0207 87.1095 34.3784 87.6841 34.6172C88.2587 34.856 88.8774 34.9706 89.4994 34.9535C90.1252 34.9685 90.7471 34.8515 91.3247 34.6101C91.9022 34.3686 92.4224 34.0082 92.8513 33.5523C93.7428 32.6181 94.1893 31.417 94.1907 29.9488C94.1922 28.4807 93.7509 27.2876 92.8667 26.3697C92.4342 25.9158 91.9106 25.5585 91.3303 25.3212C90.7499 25.0839 90.126 24.972 89.4994 24.9927Z" fill="#276A35"/>
<path d="M97.5908 21.3892H101.969L106.294 31.4912L110.61 21.3892H114.964L107.682 38.5105H104.893L97.5908 21.3892Z" fill="#276A35"/>
<path d="M117.345 15.0806H121.639V21.3894H124.186V25.0877H121.644V38.5107H117.345V25.0877H115.139V21.3894H117.345V15.0806Z" fill="#276A35"/>
<path d="M142.997 31.1932H129.199C129.356 32.3239 129.929 33.3554 130.805 34.0861C131.67 34.8055 132.774 35.1652 134.115 35.1652C134.883 35.1765 135.645 35.0333 136.356 34.744C137.068 34.4548 137.713 34.0254 138.255 33.4815L141.874 35.1806C141.054 36.3886 139.938 37.3663 138.632 38.0206C137.367 38.634 135.87 38.9408 134.14 38.9408C131.455 38.9408 129.267 38.0941 127.577 36.4009C125.887 34.7077 125.042 32.5856 125.044 30.0347C125.044 27.4221 125.885 25.2529 127.568 23.5273C129.251 21.8018 131.36 20.9419 133.895 20.9478C136.59 20.9478 138.782 21.8106 140.471 23.5362C142.159 25.2618 143.004 27.542 143.004 30.3768L142.997 31.1932ZM138.703 27.8104C138.425 26.865 137.833 26.0429 137.024 25.4802C136.175 24.8784 135.156 24.5645 134.115 24.5843C132.982 24.5637 131.874 24.9173 130.962 25.5906C130.394 26.0098 129.869 26.7498 129.387 27.8104H138.703Z" fill="#276A35"/>
<path d="M162.581 24.8516L159.004 26.8177C158.448 26.2001 157.773 25.7023 157.018 25.3547C156.283 25.0686 155.499 24.9299 154.71 24.9465C153.104 24.9465 151.804 25.4253 150.811 26.383C149.818 27.3407 149.321 28.569 149.321 30.0681C149.321 31.5245 149.799 32.7131 150.756 33.634C151.712 34.5549 152.967 35.0154 154.52 35.0154C156.443 35.0154 157.94 34.36 159.011 33.0493L162.398 35.3685C160.563 37.7502 157.977 38.941 154.637 38.941C151.627 38.941 149.27 38.0495 147.565 36.2666C146.589 35.2797 145.857 34.0782 145.428 32.758C144.999 31.4379 144.885 30.0358 145.094 28.6636C145.304 27.2914 145.831 25.9872 146.634 24.8552C147.438 23.7232 148.495 22.7948 149.721 22.144C151.255 21.3353 152.967 20.924 154.701 20.948C156.286 20.923 157.854 21.2707 159.28 21.9631C160.609 22.6283 161.745 23.6227 162.581 24.8516Z" fill="#276A35"/>
<path d="M165.831 14.7808H170.094V23.1219C170.85 22.4513 171.704 21.9013 172.628 21.4912C173.442 21.1366 174.321 20.9518 175.209 20.9483C176.008 20.9318 176.802 21.08 177.541 21.3837C178.28 21.6874 178.949 22.1402 179.506 22.7137C180.5 23.7316 180.998 25.2263 181 27.1975V38.5132H176.767V30.9974C176.767 29.0158 176.672 27.6734 176.483 26.9703C176.348 26.3509 176.007 25.7955 175.516 25.3947C175.025 25.039 174.43 24.8565 173.824 24.8762C172.992 24.8618 172.188 25.1721 171.582 25.7412C170.922 26.3804 170.47 27.203 170.284 28.1023C170.159 28.6172 170.096 29.794 170.094 31.6329V38.511H165.831V14.7808Z" fill="#276A35"/>
<path d="M59.0324 45.7153L62.7484 53.6835H61.8878L60.6345 51.062H57.2009L55.9608 53.6835H55.0781L58.8427 45.7153H59.0324ZM58.9309 47.4078L57.565 50.2941H60.2902L58.9309 47.4078Z" fill="#276A35"/>
<path d="M66.2855 45.5145V46.2581C66.0614 46.1519 65.8184 46.0911 65.5706 46.0794C65.4419 46.0741 65.3143 46.1047 65.2021 46.1677C65.1182 46.2123 65.0526 46.2849 65.0167 46.3729C64.9823 46.5784 64.9697 46.787 64.9792 46.9952V47.7895H66.2083V48.4515H64.977V53.6901H64.2179V48.4449H63.4434V47.7829H64.2179V46.8628C64.2014 46.5566 64.241 46.2499 64.3348 45.958C64.414 45.7712 64.5529 45.616 64.7298 45.5167C64.9357 45.4011 65.1691 45.3439 65.4051 45.3512C65.7046 45.3651 66.0009 45.42 66.2855 45.5145Z" fill="#276A35"/>
<path d="M67.0538 47.7895H67.8283V48.6501C68.0199 48.3505 68.2689 48.0918 68.5609 47.8888C68.797 47.7273 69.0758 47.6397 69.3619 47.6372C69.5958 47.6465 69.8235 47.7148 70.0239 47.8358L69.6289 48.4757C69.5038 48.4158 69.368 48.3813 69.2295 48.3742C68.9551 48.3832 68.6939 48.4941 68.4969 48.6854C68.2303 48.9503 68.0444 49.2855 67.9607 49.6519C67.868 49.9873 67.8195 50.6669 67.8195 51.6886V53.6746H67.0449L67.0538 47.7895Z" fill="#276A35"/>
<path d="M70.9414 45.3644C71.0236 45.3628 71.1053 45.3782 71.1812 45.4098C71.2572 45.4413 71.3258 45.4882 71.3827 45.5475C71.4413 45.605 71.4878 45.6737 71.5192 45.7495C71.5507 45.8254 71.5666 45.9068 71.5659 45.9889C71.5647 46.1541 71.4986 46.3123 71.3817 46.4292C71.2649 46.546 71.1067 46.6122 70.9414 46.6133C70.7792 46.6111 70.6241 46.5463 70.5085 46.4324C70.393 46.3185 70.3259 46.1643 70.3214 46.0021C70.3202 45.9199 70.3358 45.8384 70.3673 45.7625C70.3988 45.6866 70.4455 45.6179 70.5045 45.5608C70.5595 45.4993 70.6268 45.45 70.7021 45.4162C70.7774 45.3823 70.8589 45.3647 70.9414 45.3644ZM70.5641 47.7917H71.3232V53.6856H70.5641V47.7917Z" fill="#276A35"/>
<path d="M78.6182 49.0145L78.0179 49.3896C77.7753 49.056 77.4544 48.7872 77.0835 48.6067C76.7125 48.4263 76.303 48.3397 75.8907 48.3547C75.5616 48.3443 75.2337 48.4003 74.9266 48.5194C74.6195 48.6384 74.3395 48.818 74.1034 49.0476C73.874 49.2627 73.6921 49.5234 73.5694 49.813C73.4466 50.1026 73.3857 50.4146 73.3906 50.729C73.3898 51.155 73.5033 51.5734 73.7194 51.9405C73.9303 52.3129 74.2415 52.6187 74.6175 52.8231C75.1793 53.1193 75.827 53.2093 76.4483 53.0775C77.0695 52.9457 77.6249 52.6004 78.0179 52.1016L78.6182 52.4988C78.3358 52.9237 77.9439 53.2644 77.4839 53.4851C76.9771 53.7264 76.4211 53.8465 75.8599 53.836C75.434 53.8506 75.0095 53.78 74.6113 53.6285C74.213 53.4769 73.8491 53.2474 73.5407 52.9533C73.2445 52.6778 73.0095 52.3431 72.851 51.971C72.6924 51.5988 72.6139 51.1975 72.6205 50.793C72.6172 50.2335 72.7659 49.6836 73.0508 49.202C73.333 48.7193 73.742 48.3232 74.2336 48.0568C74.7516 47.7793 75.3318 47.638 75.9194 47.6463C76.3031 47.6454 76.6846 47.7057 77.0492 47.8251C77.3805 47.9279 77.6922 48.0852 77.9716 48.2907C78.2319 48.4878 78.4515 48.7336 78.6182 49.0145Z" fill="#276A35"/>
<path d="M85.9486 47.7898V53.6837H85.2006V52.6709C84.9104 53.0348 84.5454 53.3321 84.1303 53.5425C83.566 53.8131 82.9308 53.8994 82.3147 53.7893C81.6985 53.6792 81.1326 53.3783 80.6968 52.9291C80.4091 52.6394 80.1826 52.2947 80.031 51.9156C79.8793 51.5364 79.8056 51.1307 79.8141 50.7224C79.8079 50.3181 79.8839 49.9168 80.0375 49.5428C80.1911 49.1687 80.4192 48.8298 80.7078 48.5467C80.9846 48.2556 81.3186 48.0249 81.6889 47.8692C82.0592 47.7135 82.4577 47.6361 82.8593 47.642C83.3158 47.6347 83.7669 47.7408 84.1723 47.9509C84.5844 48.1736 84.9382 48.4904 85.205 48.8755V47.7898H85.9486ZM82.9211 48.3701C82.5088 48.3676 82.1034 48.4764 81.7477 48.6849C81.3919 48.8935 81.099 49.1941 80.8998 49.5551C80.6917 49.9174 80.5822 50.3278 80.5822 50.7456C80.5822 51.1634 80.6917 51.5738 80.8998 51.9361C81.1008 52.3018 81.3966 52.6067 81.756 52.8187C82.1055 53.0272 82.5053 53.1363 82.9123 53.1343C83.3257 53.135 83.7321 53.027 84.0906 52.8209C84.4507 52.6238 84.7481 52.3294 84.949 51.9714C85.1522 51.6019 85.2556 51.1859 85.2491 50.7644C85.2574 50.4487 85.2022 50.1346 85.0865 49.8408C84.9709 49.547 84.7973 49.2795 84.5761 49.0542C84.3622 48.8324 84.1048 48.6571 83.82 48.5394C83.5352 48.4217 83.2292 48.3641 82.9211 48.3701Z" fill="#276A35"/>
<path d="M90.9893 45.3644C91.0715 45.3628 91.1531 45.3782 91.2291 45.4098C91.3051 45.4413 91.3737 45.4882 91.4306 45.5475C91.4896 45.6047 91.5363 45.6734 91.5678 45.7493C91.5993 45.8251 91.6149 45.9067 91.6138 45.9889C91.6149 46.1123 91.5792 46.2333 91.5111 46.3364C91.4431 46.4394 91.3458 46.5198 91.2318 46.5672C91.1178 46.6146 90.9922 46.6269 90.8711 46.6025C90.7501 46.5781 90.6391 46.5181 90.5524 46.4302C90.4933 46.373 90.4466 46.3043 90.4152 46.2285C90.3837 46.1526 90.368 46.071 90.3692 45.9889C90.3685 45.9068 90.3844 45.8254 90.4159 45.7495C90.4473 45.6737 90.4938 45.605 90.5524 45.5475C90.6085 45.4884 90.6764 45.4416 90.7516 45.4101C90.8268 45.3786 90.9077 45.363 90.9893 45.3644ZM90.6119 47.7917H91.371V53.6856H90.6119V47.7917Z" fill="#276A35"/>
<path d="M92.9463 47.7896H93.7054V48.8465C93.9727 48.4755 94.3166 48.1662 94.7138 47.9396C95.0826 47.7389 95.4966 47.6356 95.9164 47.6395C96.3317 47.6319 96.7398 47.7487 97.0882 47.9749C97.4263 48.1929 97.6902 48.5084 97.845 48.8796C98.0061 49.2592 98.0878 49.8484 98.0878 50.645V53.6769H97.3287V50.8722C97.3459 50.4175 97.3178 49.9621 97.2448 49.513C97.185 49.1686 97.0062 48.8562 96.7395 48.6303C96.4578 48.4231 96.1135 48.3187 95.7642 48.3346C95.3113 48.3326 94.873 48.4949 94.5307 48.7914C94.1777 49.0804 93.9264 49.4747 93.8135 49.9168C93.7224 50.4464 93.6861 50.984 93.7054 51.521V53.6813H92.9463V47.7896Z" fill="#276A35"/>
<path d="M105.429 49.0145L104.826 49.3896C104.584 49.0561 104.264 48.7872 103.893 48.6067C103.522 48.4263 103.113 48.3397 102.701 48.3547C102.372 48.344 102.043 48.3999 101.736 48.5189C101.428 48.638 101.148 48.8178 100.912 49.0476C100.683 49.2628 100.501 49.5236 100.379 49.8132C100.256 50.1028 100.196 50.4147 100.201 50.729C100.2 51.1548 100.312 51.5732 100.528 51.9405C100.739 52.3125 101.05 52.6181 101.426 52.8231C101.819 53.0352 102.259 53.1431 102.706 53.1365C103.116 53.1447 103.522 53.0552 103.891 52.8752C104.26 52.6952 104.58 52.43 104.826 52.1016L105.429 52.4988C105.145 52.9237 104.753 53.2645 104.292 53.4851C103.786 53.726 103.231 53.8461 102.67 53.836C102.245 53.8505 101.821 53.7799 101.423 53.6284C101.025 53.4768 100.661 53.2473 100.353 52.9533C100.057 52.6783 99.8209 52.3437 99.662 51.9715C99.503 51.5993 99.4244 51.1977 99.4311 50.793C99.4272 50.2334 99.5755 49.6832 99.8599 49.2013C100.144 48.7194 100.554 48.3238 101.046 48.0568C101.564 47.7793 102.143 47.638 102.73 47.6463C103.114 47.6452 103.495 47.7055 103.86 47.8251C104.192 47.9279 104.504 48.0852 104.784 48.2907C105.043 48.4886 105.262 48.7343 105.429 49.0145Z" fill="#276A35"/>
<path d="M107.724 52.4918C107.902 52.4918 108.073 52.5626 108.199 52.6886C108.325 52.8146 108.396 52.9855 108.396 53.1637C108.396 53.3419 108.325 53.5128 108.199 53.6388C108.073 53.7648 107.902 53.8356 107.724 53.8356C107.636 53.8371 107.549 53.8201 107.468 53.7859C107.387 53.7517 107.314 53.701 107.254 53.637C107.191 53.5753 107.14 53.5016 107.106 53.4201C107.071 53.3386 107.054 53.251 107.054 53.1626C107.054 53.0741 107.071 52.9866 107.106 52.9051C107.14 52.8236 107.191 52.7498 107.254 52.6882C107.315 52.6249 107.388 52.5748 107.469 52.541C107.549 52.5072 107.636 52.4905 107.724 52.4918Z" fill="#276A35"/>
</svg>
