<svg width="1440" height="159" viewBox="0 0 1440 159" fill="none" xmlns="http://www.w3.org/2000/svg">
<g opacity="0.12">
<path d="M238.542 339.785H-118L60.2605 11.4976L238.542 339.785Z" fill="#616161"/>
<path d="M518.966 181.688C517.669 215.823 505.744 248.699 484.855 275.726C463.966 302.754 435.157 322.582 402.452 332.441C369.747 342.3 334.78 341.698 302.434 330.718C270.088 319.739 241.979 298.931 222.033 271.2C202.087 243.47 191.301 210.202 191.181 176.043C191.06 141.885 201.612 108.542 221.362 80.6717C241.112 52.8014 269.074 31.7958 301.342 20.589C333.61 9.38217 368.572 8.53381 401.346 18.1623L341.983 189.183L518.966 181.688Z" fill="#616161"/>
<path d="M1431.18 308.336C1501.54 308.336 1558.59 251.291 1558.59 180.922C1558.59 110.553 1501.54 53.5078 1431.18 53.5078C1360.81 53.5078 1303.76 110.553 1303.76 180.922C1303.76 251.291 1360.81 308.336 1431.18 308.336Z" fill="#616161"/>
<path d="M1259.47 218.333C1259.5 266.788 1240.32 313.279 1206.14 347.621C1171.96 381.963 1125.56 401.358 1077.1 401.555V35.1113C1125.56 35.3085 1171.96 54.7026 1206.14 89.045C1240.32 123.387 1259.5 169.878 1259.47 218.333Z" fill="#616161"/>
<path d="M300.205 197.85H533.656V111.956L300.205 197.85Z" fill="#616161"/>
<path d="M1030.88 152.455V43.9907H962.955L1030.88 152.455Z" fill="#616161"/>
<path d="M111.681 197.85H-82.293V111.956L111.681 197.85Z" fill="#616161"/>
<path d="M624.767 31.79H939.831L782.31 339.786L624.767 31.79Z" fill="#616161"/>
<path d="M510.916 31.79H825.981L668.438 339.786L510.916 31.79Z" fill="#616161"/>
<path d="M1322.14 0V12.6265V182.86L1540.21 1.8525" fill="#616161"/>
</g>
</svg>
