<svg width="288" height="95" viewBox="0 0 288 95" fill="none" xmlns="http://www.w3.org/2000/svg">
<g clip-path="url(#clip0_736_1709)">
<path d="M178.516 71.7183H182.869L191.562 94.4324H187.092L185.319 89.7539H176.112L174.273 94.4324H169.797L178.516 71.7183ZM180.732 77.741L177.671 85.5451H183.72L180.732 77.741Z" fill="#3EB54B"/>
<path d="M193.434 71.7183H204.654V75.9335H197.709V80.0574H204.654V84.2401H197.709V94.465H193.434V71.7183Z" fill="#3EB54B"/>
<path d="M207.234 71.7183H211.782C214.284 71.7183 216.058 71.9401 217.117 72.3708C218.187 72.819 219.084 73.6015 219.676 74.6024C220.34 75.7144 220.676 76.9929 220.645 78.2891C220.692 79.6202 220.316 80.9319 219.573 82.0346C218.763 83.1118 217.639 83.908 216.356 84.3118L221.71 94.4128H217.006L211.919 84.7947H211.529V94.4128H207.234V71.7183ZM211.542 80.599H212.887C214.258 80.599 215.2 80.4163 215.713 80.0574C215.983 79.8472 216.196 79.572 216.333 79.2572C216.469 78.9425 216.524 78.5983 216.493 78.2565C216.505 77.7918 216.371 77.335 216.11 76.9514C215.857 76.5878 215.498 76.312 215.083 76.1619C214.312 75.9593 213.514 75.8778 212.718 75.9205H211.542V80.599Z" fill="#3EB54B"/>
<path d="M223.328 71.7183H227.603V94.4324H223.328V71.7183Z" fill="#3EB54B"/>
<path d="M251.687 75.7115L248.679 78.5891C246.626 76.4141 244.322 75.3265 241.766 75.3265C240.752 75.3027 239.745 75.4879 238.805 75.8706C237.865 76.2533 237.013 76.8254 236.302 77.5516C235.577 78.2644 235.005 79.1194 234.623 80.0635C234.241 81.0075 234.056 82.0205 234.08 83.0393C234.055 84.4468 234.395 85.8367 235.068 87.0718C235.716 88.2394 236.68 89.1987 237.848 89.8385C239.071 90.5164 240.448 90.8627 241.844 90.8434C243.023 90.858 244.191 90.6176 245.268 90.1387C246.545 89.4921 247.699 88.6265 248.679 87.5808L251.597 90.6411C250.239 92.0583 248.633 93.2129 246.86 94.0473C245.246 94.7057 243.515 95.0297 241.773 94.9999C240.182 95.0578 238.596 94.7896 237.111 94.2119C235.627 93.6342 234.275 92.7589 233.138 91.6395C232.021 90.5112 231.146 89.1646 230.568 87.683C229.991 86.2014 229.722 84.6164 229.779 83.0262C229.738 80.913 230.265 78.8278 231.306 76.9905C232.355 75.2 233.872 73.7312 235.691 72.7426C237.564 71.6794 239.68 71.1261 241.831 71.1374C243.693 71.1377 245.533 71.5428 247.224 72.3249C248.941 73.1117 250.465 74.2678 251.687 75.7115Z" fill="#3EB54B"/>
<path d="M260.836 71.7183H265.203L273.902 94.4324H269.432L267.658 89.7539H258.432L256.594 94.4324H252.117L260.836 71.7183ZM263.052 77.741L259.992 85.5451H266.034L263.052 77.741Z" fill="#3EB54B"/>
<path d="M277.078 88.8992V88.2988H280.424V88.8992H279.06V94.4325H278.41V88.8992H277.078Z" fill="white"/>
<path d="M280.607 94.4325L281.485 88.2988H281.582L284.064 93.3297L286.526 88.2988H286.624L287.501 94.4325H286.903L286.299 90.0476L284.142 94.4325H283.986L281.796 90.015L281.199 94.4325H280.607Z" fill="white"/>
<path d="M141.248 0L108.535 60.4884H173.949L141.248 0Z" fill="#FFF200"/>
<path d="M60.7211 31.3859C60.4352 39.2099 57.1393 46.6178 51.5266 52.0514C45.9139 57.485 38.4219 60.521 30.6262 60.5208C22.6387 60.519 14.979 57.3312 9.33164 51.6582C3.68427 45.9853 0.511719 38.2919 0.511719 30.2701C0.511719 22.2488 3.68448 14.5561 9.33203 8.88421C14.9796 3.21233 22.6393 0.0258814 30.6262 0.0258814C33.5091 0.0247151 36.3775 0.437815 39.144 1.25262L28.2352 32.7431L60.7211 31.3859Z" fill="#04140C"/>
<path d="M251.279 39.6598C251.298 46.1795 248.738 52.4398 244.161 57.0641C239.585 61.6883 233.367 64.2977 226.876 64.3184C220.385 64.2959 214.169 61.6858 209.594 57.0618C205.019 52.4377 202.46 46.1784 202.479 39.6598C202.458 33.1401 205.016 26.879 209.592 22.2536C214.167 17.6282 220.384 15.0171 226.876 14.9946C230.091 15.0049 233.272 15.651 236.238 16.8961C239.205 18.1412 241.898 19.9609 244.164 22.2513C246.43 24.5416 248.224 27.2579 249.445 30.2448C250.666 33.2318 251.289 36.431 251.279 39.6598Z" fill="#EB509C"/>
<path d="M73.0352 13.3115H123.265L98.1468 62.6353L73.0352 13.3115Z" fill="#04140C"/>
<path d="M48.8843 24.7043L44.895 28.6651C43.79 27.4039 42.4308 26.3928 40.9075 25.6988C39.3843 25.0047 37.7316 24.6435 36.0588 24.639C34.6985 24.6036 33.3451 24.8449 32.0801 25.3484C30.815 25.8519 29.6644 26.6072 28.6975 27.5688C27.7387 28.4842 26.9796 29.5897 26.4685 30.8152C25.9574 32.0406 25.7053 33.3594 25.7283 34.6878C25.7054 36.0592 25.9674 37.4203 26.4977 38.6842C27.0279 39.9482 27.8148 41.0872 28.808 42.0286C29.8101 43.0154 30.9994 43.7901 32.3051 44.3068C33.6109 44.8235 35.0066 45.0717 36.4097 45.0367C38.1425 45.0921 39.8565 44.6629 41.3605 43.7969C42.807 42.8454 43.9381 41.4823 44.6091 39.8818H35.9874V34.5377H50.9764L51.0218 35.7971C51.021 38.4162 50.321 40.9872 48.9947 43.2423C47.7567 45.4694 45.9459 47.3218 43.7515 48.606C41.4417 49.8817 38.837 50.521 36.2018 50.4592C33.3177 50.5082 30.4695 49.8117 27.9309 48.4364C25.5131 47.0938 23.5204 45.0948 22.1809 42.6681C20.7859 40.2278 20.0532 37.4625 20.0563 34.6487C20.0009 30.833 21.3948 27.1395 23.9546 24.3193C27.0472 20.8392 31.0712 19.0992 36.0263 19.0992C38.5206 19.0799 40.9925 19.5728 43.2902 20.5478C45.4275 21.5187 47.3345 22.9357 48.8843 24.7043Z" fill="#3EB54B"/>
<path d="M68.2002 19.0665C70.2295 19.0424 72.2419 19.4384 74.112 20.2299C75.9822 21.0214 77.6699 22.1913 79.07 23.6667C80.5481 25.1245 81.714 26.8702 82.4961 28.7969C83.2782 30.7235 83.66 32.7903 83.618 34.8704C83.6621 36.9285 83.2872 38.974 82.5163 40.8815C81.7454 42.7889 80.5948 44.5182 79.135 45.9632C77.7263 47.4283 76.0328 48.5869 74.1595 49.3671C72.2863 50.1472 70.2733 50.5322 68.2457 50.4982C66.1664 50.5535 64.099 50.1671 62.1788 49.3642C60.2586 48.5613 58.5289 47.3601 57.103 45.8393C55.6702 44.3833 54.5399 42.6556 53.7781 40.7568C53.0163 38.858 52.638 36.826 52.6655 34.7791C52.6416 32.0115 53.3549 29.2878 54.7316 26.8901C56.0843 24.5125 58.0476 22.543 60.4166 21.1871C62.7749 19.7921 65.4633 19.0596 68.2002 19.0665ZM68.1417 24.639C66.8468 24.6113 65.5603 24.8539 64.3637 25.3515C63.167 25.8491 62.0862 26.5908 61.1898 27.5296C60.2537 28.5005 59.5221 29.651 59.0387 30.9123C58.5554 32.1736 58.3301 33.5198 58.3765 34.8704C58.3182 36.3625 58.608 37.8475 59.2228 39.2071C59.8376 40.5666 60.7604 41.763 61.9174 42.7006C63.6939 44.1824 65.9366 44.9825 68.2457 44.9583C69.5299 44.9776 70.804 44.7276 71.9865 44.2242C73.169 43.7209 74.2339 42.9753 75.1132 42.0351C76.0435 41.083 76.7742 39.9532 77.2619 38.7124C77.7496 37.4717 77.9844 36.1453 77.9525 34.8117C77.9811 33.4769 77.7429 32.1499 77.2518 30.9091C76.7608 29.6684 76.0269 28.5392 75.0937 27.5883C74.2044 26.6363 73.1262 25.8819 71.9289 25.3739C70.7315 24.866 69.4414 24.6156 68.1417 24.639Z" fill="#3EB54B"/>
<path d="M84.625 19.8232H90.4725L97.9702 41.0692L105.552 19.8232H111.4L100.667 49.7281H95.1569L84.625 19.8232Z" fill="white"/>
<path d="M114 36.1299H124.266V41.2913H114V36.1299Z" fill="#3EB54B"/>
<path d="M138.279 19.8232H144.029L155.484 49.7281H149.591L147.265 43.5684H135.109L132.685 49.7281H126.799L138.279 19.8232ZM141.19 27.7513L137.194 38.022H145.186L141.19 27.7513Z" fill="#3EB54B"/>
<path d="M157.959 36.1299H168.238V41.2913H157.959V36.1299Z" fill="#3EB54B"/>
<path d="M170.238 19.8232H186.696V25.4349H181.271V49.7281H175.52V25.4349H170.238V19.8232Z" fill="#3EB54B"/>
<path d="M188.535 19.8232H194.285V31.1053H204.226V19.8232H209.956V49.7281H204.226V36.606H194.285V49.7151H188.535V19.8232Z" fill="#3EB54B"/>
<path d="M228.609 19.0664C230.637 19.0429 232.648 19.4392 234.517 20.2306C236.386 21.0221 238.073 22.1918 239.472 23.6667C240.95 25.1244 242.116 26.8702 242.898 28.7968C243.68 30.7234 244.062 32.7902 244.02 34.8704C244.064 36.9285 243.689 38.974 242.919 40.8814C242.148 42.7889 240.997 44.5181 239.537 45.9632C238.129 47.4283 236.435 48.5869 234.562 49.367C232.688 50.1472 230.676 50.5322 228.648 50.4982C226.569 50.5535 224.501 50.167 222.581 49.3641C220.661 48.5613 218.931 47.3601 217.505 45.8392C216.074 44.3823 214.944 42.6545 214.182 40.756C213.421 38.8574 213.042 36.8258 213.068 34.7791C213.044 32.0114 213.757 29.2877 215.134 26.8901C216.488 24.5138 218.451 22.5447 220.819 21.1871C223.179 19.7912 225.87 19.0587 228.609 19.0664ZM228.544 24.6389C227.249 24.6112 225.963 24.8539 224.766 25.3514C223.569 25.849 222.488 26.5907 221.592 27.5296C220.656 28.5005 219.924 29.651 219.441 30.9123C218.958 32.1735 218.732 33.5197 218.779 34.8704C218.72 36.3632 219.01 37.8491 219.626 39.2089C220.242 40.5687 221.167 41.7646 222.326 42.7006C224.099 44.1849 226.34 44.9855 228.648 44.9583C229.928 44.9773 231.198 44.7284 232.377 44.2273C233.556 43.7263 234.618 42.9841 235.496 42.0481C236.426 41.096 237.157 39.9662 237.645 38.7254C238.132 37.4847 238.367 36.1583 238.335 34.8247C238.366 33.4913 238.131 32.1651 237.644 30.9244C237.156 29.6838 236.426 28.5538 235.496 27.6014C234.608 26.6469 233.53 25.8902 232.333 25.3799C231.135 24.8696 229.845 24.6172 228.544 24.6389Z" fill="white"/>
<path d="M247.262 19.8232H252.7L265.447 39.5032V19.8232H271.113V49.7281H265.662L252.934 30.0808V49.702H247.262V19.8232Z" fill="#3EB54B"/>
</g>
<defs>
<clipPath id="clip0_736_1709">
<rect width="287" height="95" fill="white" transform="translate(0.5)"/>
</clipPath>
</defs>
</svg>
