<svg width="268" height="91" viewBox="0 0 268 91" fill="none" xmlns="http://www.w3.org/2000/svg">
<g clip-path="url(#clip0_736_1737)">
<path d="M0.498779 5.50977H13.3088V9.88977H9.06879V28.7598H4.58881V9.88977H0.46875L0.498779 5.50977Z" fill="#3FAB37"/>
<path d="M14.7695 5.50977H19.2495V14.2698H27.0095V5.50977H31.4695V28.7398H27.0095V18.5498H19.2495V28.7398H14.7695V5.50977Z" fill="#3FAB37"/>
<path d="M35.1797 5.50977H47.8597V9.82977H39.5697V14.0298H47.8597V18.2798H39.5697V24.3898H47.8597V28.7398H35.1797V5.50977Z" fill="#3FAB37"/>
<path d="M64.9109 5.50977H69.4009L78.3309 28.7398H73.7409L71.9209 23.9498H62.4409L60.5509 28.7398H55.9609L64.9109 5.50977ZM67.1809 11.6698L64.0709 19.6698H70.3109L67.1809 11.6698Z" fill="#3FAB37"/>
<path d="M80.2305 5.50977H91.7605V9.81976H84.6205V14.0298H91.7605V18.2798H84.6205V28.7398H80.2305V5.50977Z" fill="#3FAB37"/>
<path d="M94.4004 5.50987H99.0904C100.943 5.41163 102.798 5.64183 104.57 6.18986C105.667 6.65678 106.587 7.45832 107.2 8.47987C107.884 9.61641 108.231 10.9238 108.2 12.2499C108.248 13.6107 107.863 14.9516 107.1 16.0799C106.269 17.1799 105.115 17.9942 103.8 18.4099L109.3 28.7399H104.46L99.2404 18.8999H98.8404V28.7399H94.4103L94.4004 5.50987ZM98.8304 14.5899H100.21C101.214 14.6777 102.221 14.4838 103.12 14.0299C103.396 13.8144 103.613 13.5328 103.751 13.2112C103.889 12.8896 103.944 12.5383 103.91 12.1899C103.919 11.7202 103.783 11.2592 103.52 10.8699C103.254 10.5015 102.886 10.2198 102.46 10.0599C101.67 9.85946 100.854 9.77854 100.04 9.81986H98.8304V14.5899Z" fill="#3FAB37"/>
<path d="M110.93 5.50977H115.31V28.7398H110.92L110.93 5.50977Z" fill="#3FAB37"/>
<path d="M140.06 9.59005L136.97 12.54C136.09 11.5132 135.002 10.6847 133.778 10.1089C132.554 9.53323 131.223 9.22345 129.87 9.20004C128.829 9.1765 127.794 9.36669 126.829 9.75884C125.864 10.151 124.99 10.7368 124.26 11.48C123.517 12.2097 122.931 13.0839 122.539 14.0488C122.147 15.0137 121.957 16.0488 121.98 17.0901C121.953 18.5298 122.297 19.9523 122.98 21.22C123.642 22.4123 124.631 23.3906 125.83 24.04C127.091 24.7236 128.507 25.0682 129.94 25.04C131.148 25.055 132.346 24.8094 133.45 24.32C134.764 23.6624 135.952 22.779 136.96 21.71L139.96 24.83C138.564 26.2815 136.913 27.4644 135.09 28.32C133.436 29.0038 131.66 29.3441 129.87 29.32C128.238 29.3815 126.61 29.109 125.086 28.5192C123.563 27.9294 122.176 27.0348 121.01 25.89C119.863 24.7355 118.965 23.358 118.372 21.8426C117.779 20.3273 117.502 18.7064 117.56 17.08C117.519 14.9195 118.061 12.7878 119.13 10.91C120.21 9.08047 121.765 7.57735 123.63 6.56005C125.556 5.47577 127.73 4.91061 129.94 4.92004C131.85 4.9209 133.737 5.33719 135.47 6.14004C137.235 6.93873 138.802 8.1167 140.06 9.59005Z" fill="#3FAB37"/>
<path d="M149.429 5.50977H153.919L162.849 28.7398H158.249L156.439 23.9498H146.959L145.069 28.7398H140.469L149.429 5.50977ZM151.699 11.6698L148.579 19.6698H154.799L151.699 11.6698Z" fill="#3FAB37"/>
<path d="M24.2304 40.0799L21.1204 43.1599C20.2578 42.1822 19.1977 41.3987 18.01 40.8609C16.8224 40.323 15.5341 40.0432 14.2304 40.0399C13.1684 40.0105 12.1114 40.1965 11.1232 40.5867C10.135 40.9768 9.23597 41.563 8.48038 42.3099C7.7349 43.0226 7.14488 43.8818 6.74735 44.8334C6.34982 45.7851 6.15338 46.8087 6.17039 47.8399C6.15225 48.9046 6.35633 49.9614 6.76957 50.9429C7.1828 51.9243 7.79614 52.8088 8.57041 53.5399C9.35156 54.3074 10.2791 54.9101 11.2978 55.3121C12.3165 55.7141 13.4056 55.9072 14.5004 55.8799C15.8551 55.9128 17.1921 55.5664 18.3604 54.8799C19.4847 54.1526 20.3686 53.1087 20.9004 51.8799H14.1704V47.7199H25.8604V48.7199C25.8585 50.7529 25.313 52.7486 24.2804 54.4999C23.3177 56.233 21.9046 57.6739 20.1904 58.6699C18.3889 59.6622 16.3565 60.1591 14.3004 60.1099C12.0516 60.1463 9.83089 59.6058 7.85038 58.5399C5.9667 57.4959 4.41437 55.9436 3.3704 54.0599C2.27852 52.1514 1.70935 49.9886 1.72037 47.7899C1.67115 44.8395 2.74332 41.9804 4.72037 39.7899C5.8929 38.459 7.34587 37.4046 8.97471 36.7026C10.6035 36.0006 12.3678 35.6684 14.1404 35.7299C16.0838 35.7125 18.0101 36.0937 19.8004 36.8499C21.4899 37.5994 23.0001 38.7005 24.2304 40.0799Z" fill="#3FAB37"/>
<path d="M39.3104 35.7102C40.8932 35.6919 42.4628 35.9994 43.9216 36.6136C45.3805 37.2277 46.6973 38.1354 47.7904 39.2803C48.9417 40.4135 49.8502 41.7693 50.4605 43.265C51.0709 44.7607 51.3703 46.3651 51.3405 47.9802C51.3721 49.5778 51.078 51.1651 50.4763 52.6453C49.8745 54.1256 48.9778 55.4678 47.8405 56.5903C46.7393 57.7266 45.417 58.6252 43.955 59.2306C42.4931 59.836 40.9226 60.1354 39.3405 60.1102C37.7189 60.1515 36.1069 59.8504 34.6095 59.2266C33.1122 58.6029 31.7632 57.6705 30.6505 56.4902C29.5359 55.3562 28.6578 54.0119 28.0672 52.5355C27.4767 51.0592 27.1855 49.4801 27.2105 47.8902C27.1939 45.7403 27.7496 43.6246 28.8205 41.7602C29.8815 39.9194 31.4096 38.3913 33.2504 37.3302C35.0911 36.2625 37.1825 35.7034 39.3104 35.7102ZM39.3104 40.0402C38.301 40.0167 37.2977 40.2038 36.3645 40.5895C35.4314 40.9751 34.5888 41.551 33.8905 42.2803C33.1595 43.0337 32.5879 43.9268 32.2099 44.9062C31.8319 45.8855 31.6552 46.931 31.6904 47.9802C31.6438 49.1412 31.8701 50.297 32.3512 51.3547C32.8323 52.4123 33.5547 53.3424 34.4605 54.0702C35.8427 55.2237 37.5903 55.8476 39.3905 55.8302C40.3936 55.8458 41.3888 55.6509 42.312 55.2582C43.2352 54.8655 44.0659 54.2837 44.7504 53.5502C45.477 52.8138 46.0473 51.9381 46.427 50.9758C46.8068 50.0135 46.9883 48.9844 46.9605 47.9502C46.9828 46.9129 46.798 45.8816 46.4168 44.9165C46.0356 43.9515 45.4657 43.0723 44.7404 42.3302C44.0446 41.5916 43.2022 41.0064 42.2672 40.6121C41.3321 40.2178 40.3251 40.023 39.3104 40.0402Z" fill="#3FAB37"/>
<path d="M52.1797 36.29H56.7297L62.5697 52.8L68.4997 36.29H73.0397L64.6697 59.5201H60.4097L52.1797 36.29Z" fill="#3FAB37"/>
<path d="M72.6797 36.29H85.5197V40.6501H81.3097V59.5201H76.8297V40.6501H72.7097L72.6797 36.29Z" fill="#3FAB37"/>
<path d="M86.9805 36.29H99.6605V40.6201H91.3705V44.82H99.6605V49.07H91.3705V55.1801H99.6605V59.5201H86.9805V36.29Z" fill="#3FAB37"/>
<path d="M123.51 40.38L120.42 43.32C119.538 42.2951 118.45 41.4684 117.226 40.8944C116.003 40.3204 114.671 40.0122 113.32 39.9901C112.278 39.9665 111.243 40.1567 110.278 40.5488C109.314 40.941 108.439 41.5268 107.71 42.2701C106.965 42.9986 106.378 43.8727 105.986 44.8378C105.594 45.803 105.404 46.8385 105.43 47.88C105.401 49.3168 105.745 50.7364 106.43 52C107.098 53.1936 108.089 54.1746 109.29 54.8301C110.546 55.5136 111.959 55.8583 113.39 55.8301C114.601 55.8448 115.801 55.5993 116.91 55.1101C118.221 54.4488 119.406 53.5619 120.41 52.4901L123.41 55.6201C122.013 57.0715 120.363 58.2544 118.54 59.1101C116.884 59.7899 115.109 60.13 113.32 60.1101C111.685 60.1716 110.055 59.8982 108.529 59.3066C107.004 58.715 105.616 57.8178 104.45 56.67C103.303 55.5174 102.405 54.1416 101.812 52.6279C101.218 51.1143 100.942 49.4949 101 47.8701C100.956 45.7062 101.499 43.5708 102.57 41.69C103.65 39.8635 105.205 38.3638 107.07 37.35C108.996 36.2666 111.17 35.7015 113.38 35.7101C115.292 35.7076 117.182 36.1204 118.92 36.92C120.686 37.7205 122.254 38.9021 123.51 40.38Z" fill="#3FAB37"/>
<path d="M125.781 36.29H130.311V45.0601H138.061V36.29H142.531V59.5201H138.061V49.3401H130.311V59.5201H125.821L125.781 36.29Z" fill="#3FAB37"/>
<path d="M24.1403 71.1599L21.0503 74.1599C20.1683 73.1359 19.0798 72.3099 17.8562 71.7361C16.6327 71.1622 15.3016 70.8534 13.9503 70.83C12.9101 70.8075 11.8761 70.9972 10.9116 71.3875C9.94708 71.7777 9.07221 72.3604 8.34031 73.0999C7.59628 73.8311 7.01006 74.707 6.6179 75.6737C6.22574 76.6403 6.03596 77.6771 6.06028 78.7199C6.02763 80.1571 6.37243 81.5777 7.06028 82.84C7.72482 84.0329 8.7127 85.0138 9.91026 85.67C11.1669 86.3535 12.58 86.6982 14.0103 86.67C15.2218 86.686 16.4224 86.4404 17.5303 85.95C18.8448 85.2891 20.0329 84.4023 21.0403 83.33L24.0403 86.46C22.6494 87.9105 21.0015 89.0904 19.1803 89.9399C17.5225 90.6235 15.7433 90.9637 13.9503 90.9399C12.3178 91.0014 10.6899 90.7289 9.16636 90.1391C7.64286 89.5493 6.25588 88.6547 5.09031 87.5099C3.94369 86.3573 3.04587 84.9815 2.45243 83.4678C1.859 81.9542 1.58259 80.3348 1.6403 78.71C1.59674 76.5461 2.13924 74.4107 3.21031 72.53C4.28526 70.6991 5.84169 69.1979 7.71031 68.1899C9.63545 67.1044 11.8102 66.5392 14.0203 66.55C15.9296 66.5474 17.8165 66.9602 19.5503 67.7599C21.3073 68.5494 22.8731 69.7092 24.1403 71.1599Z" fill="#3FAB37"/>
<path d="M37.3903 66.4998C38.973 66.4815 40.5426 66.789 42.0014 67.4031C43.4602 68.0173 44.7772 68.925 45.8702 70.0698C47.0202 71.2036 47.9271 72.5597 48.5357 74.0554C49.1443 75.5512 49.4419 77.1553 49.4102 78.7698C49.4452 80.3663 49.1526 81.9531 48.5507 83.4322C47.9487 84.9113 47.0501 86.2514 45.9102 87.3698C44.8131 88.5088 43.493 89.4092 42.0322 90.0148C40.5714 90.6205 39.0013 90.9183 37.4202 90.8898C35.7993 90.9336 34.1873 90.6346 32.6898 90.0126C31.1923 89.3905 29.843 88.4593 28.7302 87.2798C27.6205 86.1453 26.7468 84.8019 26.1597 83.3274C25.5727 81.8529 25.2839 80.2766 25.3102 78.6898C25.2937 76.5398 25.8493 74.4242 26.9202 72.5598C27.9786 70.7169 29.5073 69.1881 31.3502 68.1298C33.1825 67.0584 35.2677 66.4957 37.3903 66.4998ZM37.3403 70.8198C36.3301 70.7976 35.3263 70.9862 34.3931 71.3736C33.4599 71.761 32.6177 72.3387 31.9202 73.0698C31.1893 73.8233 30.6177 74.7164 30.2397 75.6958C29.8617 76.6751 29.685 77.7206 29.7202 78.7698C29.6712 79.9311 29.8964 81.0877 30.3777 82.1457C30.8589 83.2038 31.5827 84.1336 32.4902 84.8598C33.8724 86.0133 35.62 86.6372 37.4202 86.6198C38.4232 86.6341 39.4181 86.4387 40.3411 86.046C41.2641 85.6534 42.0949 85.0723 42.7802 84.3398C43.5049 83.602 44.074 82.7261 44.4536 81.7641C44.8333 80.8021 45.0157 79.7737 44.9902 78.7398C45.0135 77.7015 44.8282 76.669 44.4451 75.7037C44.0621 74.7383 43.4891 73.8597 42.7603 73.1198C42.0642 72.3754 41.2191 71.7858 40.2801 71.3896C39.3411 70.9933 38.3292 70.7992 37.3102 70.8198H37.3403Z" fill="#3FAB37"/>
<path d="M52.1191 79.75H60.1191V83.75H52.1191V79.75Z" fill="#3FAB37"/>
<path d="M85.3105 71.1599L82.2204 74.1599C81.3393 73.1349 80.251 72.3082 79.0272 71.7343C77.8034 71.1603 76.472 70.8521 75.1205 70.8299C74.0802 70.8074 73.0463 70.9971 72.0818 71.3874C71.1172 71.7777 70.2424 72.3603 69.5105 73.0999C68.7665 73.831 68.1802 74.707 67.7881 75.6736C67.3959 76.6402 67.2061 77.677 67.2304 78.7199C67.2029 80.1565 67.5474 81.5758 68.2304 82.8399C68.9016 84.0312 69.8922 85.0114 71.0905 85.6699C72.3472 86.3535 73.7602 86.6981 75.1905 86.6699C76.4018 86.6847 77.6022 86.4392 78.7105 85.9499C80.0218 85.2886 81.2065 84.4018 82.2105 83.3299L85.2105 86.4599C83.8142 87.9087 82.1634 89.0883 80.3405 89.9399C78.6865 90.6245 76.9103 90.9648 75.1205 90.9399C73.4863 91.0027 71.8565 90.7309 70.3312 90.1411C68.8058 89.5513 67.4172 88.6559 66.2505 87.5099C65.1038 86.3572 64.206 84.9815 63.6126 83.4678C63.0192 81.9541 62.7427 80.3347 62.8005 78.7099C62.7569 76.546 63.2994 74.4106 64.3705 72.5299C65.451 70.7034 67.0061 69.2036 68.8705 68.1899C70.7965 67.1065 72.9707 66.5414 75.1805 66.5499C77.0929 66.5474 78.9831 66.9603 80.7204 67.7599C82.4796 68.5458 84.0461 69.7061 85.3105 71.1599Z" fill="#3FAB37"/>
<path d="M87.9297 67.08H92.6097C94.463 66.9778 96.3196 67.2116 98.0897 67.77C99.1852 68.2331 100.106 69.0312 100.72 70.05C101.405 71.1894 101.752 72.5006 101.72 73.83C101.77 75.1866 101.388 76.5242 100.63 77.65C99.7948 78.7512 98.6381 79.5655 97.3197 79.98L102.82 90.31H97.9897L92.7597 80.47H92.3597V90.31H87.9397L87.9297 67.08ZM92.3497 76.16H93.7297C94.7319 76.2498 95.7394 76.0594 96.6397 75.61C96.9156 75.3945 97.1326 75.1129 97.2707 74.7913C97.4088 74.4697 97.4635 74.1184 97.4297 73.77C97.4414 73.2999 97.305 72.8381 97.0397 72.45C96.7853 72.0746 96.4173 71.7907 95.9897 71.64C95.1978 71.4299 94.3778 71.3455 93.5597 71.39H92.3097L92.3497 76.16Z" fill="#3FAB37"/>
<path d="M104.789 67.0801H117.469V71.4101H109.179V75.6101H117.469V79.8901H109.179V86.0001H117.469V90.3401H104.789V67.0801Z" fill="#3FAB37"/>
<path d="M127.06 67.0801H131.54L140.47 90.3101H135.88L134.06 85.5301H124.58L122.69 90.3101H118.1L127.06 67.0801ZM129.33 73.2401L126.21 81.2401H132.42L129.33 73.2401Z" fill="#3FAB37"/>
<path d="M140.02 67.0801H152.859V71.4401H148.63V90.3101H144.14V71.4401H140.02V67.0801Z" fill="#3FAB37"/>
<path d="M153.99 67.0801H158.38V90.3101H153.99V67.0801Z" fill="#3FAB37"/>
<path d="M172.73 66.4998C174.313 66.4809 175.883 66.7881 177.342 67.4023C178.801 68.0165 180.118 68.9246 181.21 70.0699C182.363 71.2017 183.273 72.5572 183.884 74.0533C184.494 75.5493 184.792 77.1544 184.76 78.7699C184.793 80.3661 184.499 81.9521 183.897 83.4309C183.296 84.9097 182.398 86.25 181.26 87.3699C180.162 88.5078 178.842 89.4076 177.381 90.0132C175.921 90.6188 174.351 90.9172 172.77 90.8899C171.149 90.9343 169.537 90.6356 168.039 90.0135C166.542 89.3914 165.193 88.4598 164.08 87.2799C162.963 86.1486 162.082 84.8067 161.488 83.3321C160.894 81.8574 160.599 80.2795 160.62 78.6898C160.598 76.5392 161.154 74.422 162.23 72.5599C163.285 70.7146 164.815 69.1851 166.66 68.1299C168.501 67.0519 170.597 66.4889 172.73 66.4998ZM172.73 70.8199C171.72 70.7976 170.716 70.9863 169.783 71.3737C168.85 71.7611 168.008 72.3388 167.31 73.0699C166.577 73.822 166.005 74.7149 165.626 75.6945C165.248 76.6742 165.073 77.7204 165.11 78.7699C165.061 79.9312 165.286 81.0877 165.768 82.1458C166.249 83.2038 166.973 84.1336 167.88 84.8599C169.262 86.0149 171.01 86.639 172.81 86.6199C173.813 86.6335 174.808 86.4378 175.731 86.0452C176.654 85.6526 177.484 85.0718 178.17 84.3399C178.895 83.6021 179.464 82.7261 179.844 81.7642C180.223 80.8022 180.406 79.7737 180.38 78.7399C180.401 77.7018 180.215 76.67 179.832 75.705C179.449 74.7399 178.877 73.8611 178.15 73.1199C177.452 72.3752 176.605 71.7856 175.665 71.3893C174.724 70.9931 173.711 70.799 172.69 70.8199H172.73Z" fill="#3FAB37"/>
<path d="M187.359 67.0801H191.599L201.539 82.3701V67.0801H205.959V90.3101H201.709L191.779 75.0701V90.3101H187.359V67.0801Z" fill="#3FAB37"/>
<path d="M217.15 67.0801H221.57V86.0801H228.01V90.2901H217.15V67.0801Z" fill="#3FAB37"/>
<path d="M236.88 67.0801H241.36L250.29 90.3101H245.7L243.88 85.5301H234.4L232.51 90.3101H227.92L236.88 67.0801ZM239.15 73.2401L236.03 81.2401H242.24L239.15 73.2401Z" fill="#3FAB37"/>
<path d="M252.131 90.3102V67.0801H255.781C257.342 67.0265 258.903 67.1642 260.431 67.4901C261.73 67.8037 262.893 68.5258 263.751 69.5501C264.57 70.542 265.006 71.7943 264.981 73.0801C264.991 73.9169 264.799 74.7437 264.421 75.4901C263.972 76.2848 263.35 76.9683 262.601 77.4901C263.844 78.0134 264.915 78.8763 265.691 79.9801C266.372 81.0295 266.72 82.2597 266.691 83.5101C266.704 84.7679 266.357 86.0032 265.691 87.0701C265.068 88.1054 264.162 88.9415 263.081 89.4801C261.692 90.0815 260.183 90.3552 258.671 90.2802L252.131 90.3102ZM256.551 71.3102V76.2001H257.551C258.407 76.2703 259.259 76.0288 259.951 75.5201C260.211 75.2919 260.416 75.0079 260.551 74.6893C260.686 74.3707 260.748 74.0258 260.731 73.6802C260.745 73.3547 260.686 73.0302 260.558 72.7307C260.43 72.4313 260.236 72.1645 259.991 71.9501C259.335 71.4728 258.53 71.2458 257.721 71.3102H256.551ZM256.551 80.1502V86.1502H257.661C258.939 86.269 260.224 86.0264 261.371 85.4501C261.691 85.2267 261.951 84.9266 262.125 84.5773C262.3 84.228 262.384 83.8405 262.371 83.4501C262.387 82.9944 262.293 82.5415 262.098 82.1293C261.904 81.717 261.613 81.3573 261.251 81.0801C260.127 80.403 258.818 80.0985 257.511 80.2101L256.551 80.1502Z" fill="#3FAB37"/>
<path d="M193.49 0L162.25 57.52H224.73L193.49 0Z" fill="#3FAB37"/>
<path d="M176.48 0L193.49 31.32L210.5 0H176.48Z" fill="white"/>
<path d="M217.469 0L230.739 24.44L244.009 0H217.469Z" fill="white"/>
<path d="M250.99 0L259.49 15.66L267.99 0H250.99Z" fill="white"/>
</g>
<defs>
<clipPath id="clip0_736_1737">
<rect width="267.49" height="90.89" fill="white" transform="translate(0.5)"/>
</clipPath>
</defs>
</svg>
