<svg width="278" height="162" viewBox="0 0 278 162" fill="none" xmlns="http://www.w3.org/2000/svg">
<g clip-path="url(#clip0_736_1777)">
<path d="M0.5 0.560059H12.7951V4.70752H8.74423V22.7083H4.47261V4.70752H0.528505L0.5 0.560059Z" fill="#3FAB37"/>
<path d="M14.1699 0.560059H18.4415V8.91882H25.867V0.560059H30.1386V22.7154H25.867V12.9954H18.4415V22.7154H14.1699V0.560059Z" fill="#3FAB37"/>
<path d="M33.7109 0.560059H45.8566V4.70753H37.9185V8.71323H45.8566V12.7614H37.9185V18.5892H45.8566V22.7367H33.7109V0.560059Z" fill="#3FAB37"/>
<path d="M62.1896 0.560059H66.4612L75.0044 22.7154H70.6047L68.8675 18.1496H59.8331L58.0248 22.7154H53.625L62.1896 0.560059ZM64.361 6.43032L61.378 14.0376H67.3298L64.361 6.43032Z" fill="#3FAB37"/>
<path d="M76.8555 0.560059H87.8976V4.67208H81.063V8.69194H87.8976V12.7402H81.063V22.7154H76.8555V0.560059Z" fill="#3FAB37"/>
<path d="M90.4453 0.560059H94.9305C97.3891 0.560059 99.1404 0.777464 100.185 1.2123C101.232 1.65621 102.111 2.41792 102.698 3.38885C103.353 4.47483 103.684 5.72402 103.652 6.99039C103.696 8.28766 103.327 9.56566 102.598 10.6416C101.797 11.6891 100.691 12.4642 99.4299 12.8607L104.698 22.7154H100.071L95.0871 13.3286H94.7027V22.7154H90.4453V0.560059ZM94.6813 9.21657H96.0055C96.9642 9.30029 97.9275 9.11874 98.7892 8.69194C99.0543 8.48618 99.263 8.21722 99.3961 7.90993C99.5293 7.60263 99.5825 7.26691 99.551 6.93371C99.5609 6.4863 99.4289 6.04716 99.1737 5.67881C98.9266 5.32184 98.5728 5.05147 98.1627 4.90606C97.4056 4.71043 96.6229 4.63151 95.8418 4.67208H94.6813V9.21657Z" fill="#3FAB37"/>
<path d="M106.258 0.560059H110.465V22.7154H106.258V0.560059Z" fill="#3FAB37"/>
<path d="M134.159 4.4525L131.197 7.28839C130.355 6.30875 129.313 5.51841 128.141 4.96965C126.969 4.42088 125.693 4.12621 124.398 4.10511C123.401 4.08292 122.41 4.2639 121.486 4.63697C120.561 5.01004 119.723 5.56731 119.023 6.27456C118.312 6.97137 117.752 7.80577 117.378 8.72637C117.003 9.64696 116.821 10.6342 116.845 11.6273C116.819 12.9995 117.15 14.3549 117.806 15.5621C118.445 16.7005 119.395 17.6348 120.547 18.2562C121.745 18.9211 123.098 19.261 124.469 19.2416C125.633 19.2506 126.784 19.0087 127.844 18.5327C129.099 17.9011 130.234 17.0566 131.197 16.0371L134.045 19.0219C132.707 20.4007 131.13 21.5272 129.389 22.3469C127.806 22.9832 126.112 23.2966 124.405 23.2686C122.84 23.3262 121.28 23.0655 119.82 22.5023C118.359 21.9392 117.03 21.0854 115.912 19.9931C114.814 18.8931 113.955 17.5807 113.387 16.1369C112.819 14.6931 112.554 13.1486 112.609 11.5989C112.569 9.53634 113.088 7.50122 114.111 5.70735C115.144 3.96217 116.636 2.53069 118.425 1.56698C120.266 0.530129 122.347 -0.00998039 124.462 0.00013964C126.294 0.000558033 128.104 0.39729 129.766 1.16286C131.455 1.92479 132.955 3.04797 134.159 4.4525Z" fill="#3FAB37"/>
<path d="M143.129 0.560059H147.401L155.944 22.7154H151.544L149.807 18.1496H140.73L138.922 22.7154H134.586L143.129 0.560059ZM145.308 6.43032L142.318 14.0376H148.269L145.308 6.43032Z" fill="#3FAB37"/>
<path d="M23.2329 33.5341L20.2499 36.4693C19.4242 35.5359 18.4089 34.7878 17.2712 34.2745C16.1335 33.7612 14.8993 33.4943 13.6502 33.4916C12.6334 33.4648 11.6216 33.6432 10.6759 34.0161C9.73008 34.3889 8.86988 34.9484 8.14697 35.6611C7.43134 36.3382 6.86493 37.1562 6.48376 38.0631C6.10259 38.9699 5.91496 39.9458 5.93282 40.9287C5.91384 41.9447 6.10866 42.9534 6.5047 43.89C6.90074 44.8265 7.48927 45.6701 8.2324 46.3665C8.98312 47.0993 9.87429 47.674 10.8528 48.0564C11.8313 48.4389 12.8771 48.6213 13.9279 48.5927C15.2232 48.6358 16.505 48.3191 17.6299 47.6781C18.707 46.9786 19.5518 45.977 20.0576 44.7997H13.6502V40.8649H24.8418V41.8007C24.8413 43.7414 24.3176 45.6463 23.3254 47.3165C22.4048 48.9683 21.0515 50.3404 19.4098 51.2868C17.6853 52.2334 15.7398 52.708 13.7712 52.6622C11.6158 52.6989 9.48738 52.1812 7.59164 51.1592C5.79678 50.1663 4.31702 48.6927 3.32002 46.9053C2.27366 45.0866 1.72845 43.0248 1.73955 40.9287C1.69676 38.1013 2.741 35.3645 4.65847 33.2789C5.78082 32.0113 7.17105 31.0068 8.72937 30.3375C10.2877 29.6682 11.9755 29.3508 13.6716 29.4079C15.5343 29.3921 17.3806 29.7565 19.0965 30.4785C20.6739 31.1992 22.0827 32.24 23.2329 33.5341Z" fill="#3FAB37"/>
<path d="M37.6907 29.3655C39.2056 29.3479 40.7078 29.641 42.1041 30.2265C43.5003 30.8119 44.7607 31.6772 45.8067 32.7685C46.9086 33.8492 47.7779 35.142 48.3617 36.5681C48.9456 37.9942 49.2317 39.5237 49.2027 41.0635C49.2339 42.5872 48.9527 44.1011 48.3761 45.5128C47.7995 46.9244 46.9398 48.2041 45.8494 49.2734C44.7989 50.3598 43.5347 51.219 42.1358 51.7971C40.737 52.3753 39.2335 52.6602 37.7191 52.6339C36.1659 52.6752 34.6214 52.3889 33.1871 51.7939C31.7528 51.1988 30.461 50.3085 29.3966 49.1813C28.3269 48.103 27.4828 46.8239 26.9133 45.4182C26.3438 44.0126 26.0602 42.5083 26.079 40.9926C26.0634 38.9409 26.5967 36.9221 27.6239 35.1436C28.6438 33.3828 30.1188 31.9262 31.8955 30.9252C33.6524 29.8987 35.6537 29.36 37.6907 29.3655ZM37.6408 33.4917C36.675 33.4691 35.715 33.6465 34.8216 34.0126C33.9282 34.3787 33.1209 34.9256 32.4508 35.6186C31.7455 36.3351 31.1928 37.1861 30.8258 38.1205C30.4588 39.0549 30.285 40.0535 30.315 41.0564C30.2701 42.1648 30.4869 43.2682 30.9481 44.2779C31.4094 45.2876 32.1021 46.1754 32.9705 46.87C34.2941 47.9688 35.9676 48.562 37.6907 48.5432C38.6507 48.5568 39.603 48.3709 40.4868 47.9973C41.3707 47.6238 42.1666 47.0708 42.8237 46.3737C43.521 45.6705 44.0693 44.8349 44.4362 43.9167C44.8031 42.9984 44.981 42.0161 44.9595 41.0281C44.9808 40.039 44.8027 39.0557 44.4359 38.1363C44.0691 37.2169 43.5209 36.3801 42.8237 35.6753C42.1597 34.9726 41.3558 34.4154 40.4634 34.0394C39.571 33.6635 38.6097 33.4769 37.6408 33.4917Z" fill="#3FAB37"/>
<path d="M49.9941 29.9185H54.3512L59.947 45.6576L65.6425 29.9185H69.9924L61.9689 52.0738H57.8895L49.9941 29.9185Z" fill="#3FAB37"/>
<path d="M69.6289 29.9185H81.9027V34.0801H77.8446V52.0738H73.573V34.0801H69.6289V29.9185Z" fill="#3FAB37"/>
<path d="M83.3262 29.9185H95.4718V34.0447H87.5266V38.0291H95.4647V42.0844H87.5266V47.9547H95.4647V52.0951H83.3262V29.9185Z" fill="#3FAB37"/>
<path d="M118.312 33.8109L115.35 36.6468C114.507 35.6682 113.465 34.8786 112.293 34.3299C111.121 33.7812 109.846 33.486 108.551 33.4635C107.553 33.441 106.561 33.6225 105.637 33.9969C104.712 34.3713 103.875 34.9305 103.176 35.6401C102.465 36.3355 101.905 37.1687 101.53 38.0881C101.156 39.0076 100.974 39.9937 100.997 40.9857C100.97 42.3581 101.301 43.7139 101.958 44.9205C102.596 46.0513 103.541 46.9801 104.685 47.6004C105.886 48.2589 107.237 48.596 108.608 48.5788C109.771 48.5844 110.921 48.3427 111.982 47.8698C113.245 47.2496 114.39 46.4146 115.364 45.4026L118.212 48.3803C116.878 49.7636 115.299 50.8907 113.556 51.7054C111.974 52.3446 110.279 52.6604 108.572 52.6341C107.006 52.6956 105.444 52.438 103.981 51.8772C102.518 51.3165 101.185 50.4643 100.065 49.3728C98.9662 48.272 98.1063 46.9584 97.5381 45.5133C96.9699 44.0682 96.7054 42.5224 96.7612 40.9715C96.7225 38.9113 97.2413 36.8787 98.2634 35.0871C99.2878 33.343 100.769 31.9094 102.549 30.9396C104.39 29.9009 106.471 29.3607 108.586 29.3728C110.418 29.3705 112.227 29.7648 113.89 30.5284C115.586 31.2901 117.094 32.4102 118.312 33.8109Z" fill="#3FAB37"/>
<path d="M120.482 29.9185H124.754V38.2772H132.18V29.9185H136.451V52.0738H132.18V42.3609H124.754V52.0738H120.482V29.9185Z" fill="#3FAB37"/>
<path d="M153.95 29.9185H158.222L166.765 52.0738H162.365L160.621 47.508H151.544L149.736 52.0738H145.336L153.95 29.9185ZM156.122 35.7958L153.139 43.4031H159.091L156.122 35.7958Z" fill="#3FAB37"/>
<path d="M168.559 29.9185H172.787V48.054H178.96V52.0738H168.559V29.9185Z" fill="#3FAB37"/>
<path d="M180.662 29.9185H184.898V48.054H191.071V52.0738H180.662V29.9185Z" fill="#3FAB37"/>
<path d="M192.473 29.9185H196.673V52.0738H192.473V29.9185Z" fill="#3FAB37"/>
<path d="M206.705 29.9185H210.977L219.52 52.0738H215.12L213.383 47.508H204.356L202.548 52.0738H198.141L206.705 29.9185ZM208.884 35.7958L205.894 43.4031H211.853L208.884 35.7958Z" fill="#3FAB37"/>
<path d="M221.328 29.9185H225.393L234.912 44.502V29.9185H239.183V52.0738H235.104L225.6 37.5399V52.0738H221.328V29.9185Z" fill="#3FAB37"/>
<path d="M263.154 33.8107L260.192 36.6466C259.349 35.668 258.307 34.8784 257.135 34.3297C255.963 33.781 254.688 33.4858 253.393 33.4633C252.397 33.4409 251.406 33.6225 250.483 33.9969C249.559 34.3713 248.723 34.9305 248.025 35.6399C247.312 36.334 246.75 37.1667 246.374 38.0864C245.998 39.006 245.816 39.9928 245.84 40.9855C245.812 42.3589 246.145 43.7156 246.808 44.9203C247.442 46.0621 248.39 46.9994 249.542 47.6215C250.745 48.2809 252.099 48.618 253.472 48.5999C254.632 48.6047 255.78 48.363 256.839 47.8909C258.094 47.2593 259.229 46.4148 260.192 45.3953L263.04 48.373C261.706 49.7563 260.128 50.8834 258.384 51.6981C256.802 52.3373 255.108 52.6531 253.401 52.6268C251.842 52.6825 250.288 52.4229 248.833 51.8635C247.378 51.3042 246.052 50.4568 244.936 49.3726C243.837 48.2718 242.977 46.9582 242.409 45.5131C241.841 44.068 241.577 42.5222 241.632 40.9713C241.597 38.9115 242.116 36.8798 243.134 35.0869C244.168 33.3417 245.659 31.9102 247.449 30.9465C249.291 29.9066 251.375 29.3663 253.493 29.3796C255.322 29.3782 257.129 29.7725 258.79 30.5353C260.466 31.2998 261.955 32.4173 263.154 33.8107Z" fill="#3FAB37"/>
<path d="M265.354 29.9185H277.499V34.0447H269.561V38.0291H277.499V42.0844H269.561V47.9547H277.499V52.0951H265.354V29.9185Z" fill="#3FAB37"/>
<path d="M9.47682 59.2983H13.7484L22.2917 81.4537H17.8919L16.1548 76.8879H7.14878L5.33335 81.4537H0.933594L9.47682 59.2983ZM11.6553 65.1686L8.66521 72.7759H14.617L11.6553 65.1686Z" fill="#3FAB37"/>
<path d="M24.102 59.2983H28.1672L37.6857 73.8748V59.2983H41.9146V81.4537H37.8423L28.338 66.9198V81.4537H24.0664L24.102 59.2983Z" fill="#3FAB37"/>
<path d="M45.4941 59.2983H50.5133C53.7455 59.2983 56.1471 59.6977 57.7181 60.4965C59.3775 61.375 60.7322 62.7315 61.6053 64.3888C62.6528 66.3202 63.1779 68.4898 63.1288 70.6844C63.1468 72.2934 62.8569 73.8911 62.2745 75.392C61.7596 76.7314 60.9551 77.9417 59.918 78.9369C58.9991 79.8297 57.8857 80.4993 56.6644 80.8936C54.6707 81.3414 52.6264 81.5249 50.5845 81.4395H45.4941V59.2983ZM49.7017 63.3608V77.3417H51.6666C53.1014 77.4317 54.5383 77.2041 55.8742 76.6752C56.8062 76.1756 57.5543 75.3934 58.01 74.442C58.6008 73.2437 58.8868 71.9193 58.8429 70.5852C58.8429 68.2219 58.1832 66.3975 56.8638 65.1119C55.6677 63.9492 53.7597 63.3608 51.1256 63.3608H49.7017Z" fill="#3FAB37"/>
<path d="M72.4629 59.2983H76.6704V81.4537H72.4629V59.2983Z" fill="#3FAB37"/>
<path d="M79.9316 59.2983H83.9897L93.5082 73.8748V59.2983H97.7443V81.4537H93.672L84.1676 66.9198V81.4537H79.9316V59.2983Z" fill="#3FAB37"/>
<path d="M101.325 59.2983H105.383L114.901 73.8748V59.2983H119.137V81.4537H115.065L105.561 66.9198V81.4537H101.289L101.325 59.2983Z" fill="#3FAB37"/>
<path d="M133.205 58.7239C134.72 58.7063 136.222 58.9994 137.619 59.5849C139.015 60.1703 140.275 61.0356 141.321 62.1269C142.424 63.2084 143.294 64.5024 143.878 65.9297C144.462 67.3571 144.747 68.888 144.717 70.429C144.749 71.9521 144.469 73.4658 143.894 74.8774C143.319 76.289 142.46 77.569 141.371 78.6389C140.317 79.7216 139.051 80.5772 137.651 81.1528C136.251 81.7284 134.748 82.0118 133.234 81.9852C131.681 82.0265 130.137 81.7409 128.703 81.1472C127.269 80.5534 125.977 79.6649 124.911 78.5397C123.842 77.4597 122.999 76.1792 122.431 74.7723C121.862 73.3654 121.58 71.8602 121.601 70.3439C121.582 68.2951 122.113 66.2785 123.138 64.502C124.155 62.7292 125.63 61.2602 127.41 60.2482C129.171 59.2362 131.172 58.7101 133.205 58.7239ZM133.162 62.843C132.196 62.8203 131.234 62.9975 130.34 63.3636C129.445 63.7297 128.637 64.2767 127.965 64.9699C127.266 65.6894 126.72 66.5417 126.359 67.4759C125.999 68.4102 125.83 69.4073 125.865 70.4077C125.819 71.5155 126.035 72.6185 126.495 73.6282C126.955 74.6378 127.646 75.526 128.514 76.2213C129.838 77.3179 131.511 77.9108 133.234 77.8945C134.194 77.9081 135.146 77.7222 136.03 77.3486C136.914 76.9751 137.71 76.4221 138.367 75.725C139.063 75.0213 139.611 74.1857 139.978 73.2675C140.345 72.3494 140.523 71.3673 140.503 70.3794C140.524 69.3892 140.346 68.4048 139.979 67.4843C139.612 66.5637 139.064 65.7257 138.367 65.0196C137.7 64.3151 136.892 63.7574 135.996 63.3826C135.1 63.0077 134.134 62.8239 133.162 62.843Z" fill="#3FAB37"/>
<path d="M145.508 59.2983H149.865L155.461 75.0375L161.156 59.2983H165.499L157.49 81.4537H153.403L145.508 59.2983Z" fill="#3FAB37"/>
<path d="M174.12 59.2983H178.391L186.935 81.4537H182.535L180.791 76.8879H171.749L169.941 81.4537H165.541L174.12 59.2983ZM176.291 65.1686L173.308 72.7688H179.26L176.291 65.1686Z" fill="#3FAB37"/>
<path d="M186.559 59.2983H198.854V63.4529H194.796V81.4537H190.524V63.4529H186.559V59.2983Z" fill="#3FAB37"/>
<path d="M199.914 59.2983H204.114V81.4537H199.914V59.2983Z" fill="#3FAB37"/>
<path d="M217.883 58.7239C219.398 58.7063 220.901 58.9994 222.297 59.5849C223.693 60.1703 224.953 61.0356 225.999 62.1269C227.102 63.2084 227.972 64.5024 228.556 65.9297C229.14 67.3571 229.425 68.888 229.395 70.429C229.427 71.9526 229.145 73.4666 228.569 74.8783C227.992 76.2899 227.132 77.5696 226.042 78.6389C224.986 79.7249 223.717 80.5826 222.313 81.1583C220.909 81.7341 219.401 82.0155 217.883 81.9852C216.331 82.0265 214.787 81.7409 213.353 81.1472C211.919 80.5534 210.626 79.6649 209.561 78.5397C208.49 77.461 207.645 76.1808 207.075 74.7738C206.505 73.3667 206.223 71.8609 206.243 70.3439C206.228 68.2945 206.761 66.2779 207.788 64.502C208.804 62.7288 210.279 61.2597 212.06 60.2482C213.83 59.2326 215.84 58.7064 217.883 58.7239ZM217.834 62.8501C216.868 62.8279 215.908 63.0055 215.015 63.3716C214.121 63.7377 213.314 64.2843 212.644 64.977C211.938 65.6935 211.386 66.5445 211.018 67.4789C210.651 68.4133 210.478 69.4119 210.508 70.4148C210.462 71.5226 210.678 72.6256 211.138 73.6352C211.598 74.6449 212.289 75.5331 213.156 76.2284C214.483 77.3266 216.158 77.9196 217.883 77.9016C218.843 77.9152 219.796 77.7293 220.68 77.3557C221.563 76.9822 222.359 76.4292 223.016 75.7321C223.713 75.0286 224.262 74.1931 224.628 73.2749C224.995 72.3566 225.173 71.3745 225.152 70.3865C225.172 69.3965 224.994 68.4124 224.627 67.492C224.26 66.5716 223.713 65.7334 223.016 65.0266C222.351 64.3221 221.545 63.7639 220.65 63.3879C219.755 63.0118 218.791 62.8262 217.819 62.843L217.834 62.8501Z" fill="#3FAB37"/>
<path d="M231.871 59.2983H235.936L245.455 73.8748V59.2983H249.684V81.4537H245.647L236.143 66.9198V81.4537H231.907L231.871 59.2983Z" fill="#3FAB37"/>
<path d="M2.75 88.6426H13.7921V92.7546H6.95752V96.7816H13.7921V100.83H6.95752V110.798H2.75V88.6426Z" fill="white"/>
<path d="M15.8906 88.6426H20.1622V102.971C20.1135 103.855 20.2219 104.741 20.4826 105.587C20.6999 106.1 21.0767 106.53 21.5576 106.814C22.104 107.136 22.7314 107.295 23.366 107.274C24.0448 107.291 24.7142 107.114 25.2953 106.764C25.802 106.464 26.1949 106.005 26.413 105.459C26.6766 104.478 26.7823 103.461 26.7263 102.446V88.6426H30.9979V101.837C31.064 103.394 30.9373 104.954 30.6205 106.48C30.3374 107.407 29.8511 108.259 29.1967 108.976C28.5288 109.754 27.6878 110.366 26.7405 110.762C25.7121 111.166 24.6136 111.364 23.5083 111.344C22.0266 111.38 20.5651 110.996 19.2937 110.238C18.1808 109.589 17.2883 108.624 16.7307 107.466C16.2181 106.353 15.9618 104.481 15.9618 101.837L15.8906 88.6426Z" fill="white"/>
<path d="M34.3325 88.6426H38.3976L47.9162 103.254V88.6709H52.1522V110.826H48.0728L38.5685 96.2924V110.826H34.2969L34.3325 88.6426Z" fill="white"/>
<path d="M55.7251 88.6426H60.7086C63.9408 88.6426 66.3471 89.0467 67.9134 89.8407C69.5696 90.7234 70.9233 92.0788 71.8006 93.733C72.8497 95.6639 73.3748 97.8339 73.3241 100.029C73.3421 101.638 73.0522 103.235 72.4698 104.736C71.9539 106.075 71.1495 107.285 70.1133 108.281C69.1944 109.174 68.081 109.844 66.8597 110.238C64.868 110.682 62.8262 110.864 60.7869 110.777H55.6895L55.7251 88.6426ZM59.9326 92.7121V106.686H61.8975C63.3338 106.773 64.772 106.548 66.1122 106.027C67.0392 105.52 67.7855 104.74 68.248 103.793C68.838 102.595 69.124 101.271 69.081 99.9365C69.081 97.5733 68.4212 95.7488 67.1018 94.4632C65.9129 93.2934 63.9977 92.7121 61.4063 92.7121H59.9326Z" fill="white"/>
<path d="M148.803 134.152L123.359 159.49L112.658 123.489L148.803 134.152Z" fill="#FFED00"/>
<path d="M73.9297 110.266L99.3743 84.9277L110.082 120.922L73.9297 110.266Z" fill="#3FAB37"/>
<path d="M125.31 97.5264L136.715 108.884L120.512 113.663L125.31 97.5264Z" fill="#E6007E"/>
<path d="M71.9727 136.668L97.4101 162L108.118 126.005L71.9727 136.668Z" fill="white"/>
</g>
<defs>
<clipPath id="clip0_736_1777">
<rect width="277" height="162" fill="white" transform="translate(0.5)"/>
</clipPath>
</defs>
</svg>
