<svg width="215" height="45" viewBox="0 0 215 45" fill="none" xmlns="http://www.w3.org/2000/svg">
<path d="M33.2457 38.4086H0L16.6219 7.79754L33.2457 38.4086Z" fill="white"/>
<path d="M59.3944 23.6669C59.2735 26.8497 58.1615 29.9153 56.2138 32.4355C54.266 34.9556 51.5797 36.8045 48.5301 37.7238C45.4806 38.6431 42.22 38.5869 39.2039 37.5632C36.1878 36.5394 33.5668 34.5991 31.707 32.0134C29.8472 29.4277 28.8414 26.3256 28.8302 23.1405C28.819 19.9555 29.8029 16.8464 31.6444 14.2476C33.486 11.6489 36.0933 9.69023 39.1021 8.64525C42.111 7.60027 45.371 7.52116 48.427 8.41897L42.8917 24.3658L59.3944 23.6669Z" fill="white"/>
<path d="M144.453 35.4761C151.014 35.4761 156.334 30.1569 156.334 23.5954C156.334 17.0339 151.014 11.7147 144.453 11.7147C137.891 11.7147 132.572 17.0339 132.572 23.5954C132.572 30.1569 137.891 35.4761 144.453 35.4761Z" fill="white"/>
<path d="M128.443 27.0838C128.445 31.602 126.657 35.937 123.47 39.1393C120.282 42.3415 115.956 44.1499 111.438 44.1683V9.99938C115.956 10.0178 120.282 11.8262 123.47 15.0284C126.657 18.2307 128.445 22.5657 128.443 27.0838Z" fill="white"/>
<path d="M38.9961 25.1739H60.7641V17.1647L38.9961 25.1739Z" fill="#3DB54A"/>
<path d="M107.836 44.9227H134.222V32.8653L107.836 44.9227Z" fill="#3DB54A"/>
<path d="M151.852 -2.31173e-07L130.715 19.6733L139.705 29.3319L151.852 -2.31173e-07Z" fill="#3DB54A"/>
<path d="M107.126 20.9409V10.8273H100.793L107.126 20.9409Z" fill="#3DB54A"/>
<path d="M21.4172 25.1739H3.33008V17.1647L21.4172 25.1739Z" fill="#3DB54A"/>
<path d="M69.2598 9.68963H98.6379L83.9498 38.4086L69.2598 9.68963Z" fill="#3DB54A"/>
<path d="M58.6426 9.68963H88.0207L73.3306 38.4086L58.6426 9.68963Z" fill="white"/>
<path d="M176.656 5.89033H177.998L180.672 12.8394H179.297L178.754 11.408H175.919L175.352 12.8394H173.978L176.656 5.89033ZM177.336 7.73272L176.41 10.1184H178.258L177.336 7.73272ZM180.946 7.69965H181.404C181.407 7.02568 181.418 6.62728 181.437 6.50446C181.472 6.22101 181.59 5.99741 181.791 5.83364C181.996 5.66672 182.284 5.58326 182.656 5.58326C182.923 5.58326 183.226 5.64468 183.563 5.7675V6.75011C183.377 6.69657 183.224 6.6698 183.104 6.6698C182.953 6.6698 182.843 6.70129 182.774 6.76428C182.723 6.81152 182.698 6.90915 182.698 7.05717L182.693 7.69965H183.511V8.79563H182.693V12.8394H181.404V8.79563H180.946V7.69965ZM183.969 7.69965H185.074V8.34685C185.194 8.09175 185.353 7.89806 185.552 7.76579C185.75 7.63351 185.967 7.56737 186.203 7.56737C186.37 7.56737 186.545 7.61147 186.728 7.69965L186.326 8.80981C186.175 8.73422 186.051 8.69643 185.953 8.69643C185.755 8.69643 185.586 8.81925 185.448 9.06491C185.312 9.31056 185.244 9.79241 185.244 10.5105L185.249 10.7608V12.8394H183.969V7.69965ZM187.876 5.58326C188.103 5.58326 188.296 5.66515 188.457 5.82891C188.621 5.99268 188.703 6.19109 188.703 6.42415C188.703 6.65405 188.622 6.85089 188.462 7.01466C188.301 7.17528 188.109 7.25559 187.885 7.25559C187.655 7.25559 187.459 7.1737 187.295 7.00993C187.134 6.84302 187.054 6.64146 187.054 6.40525C187.054 6.1785 187.134 5.98481 187.295 5.82419C187.455 5.66357 187.649 5.58326 187.876 5.58326ZM187.229 7.69965H188.523V12.8394H187.229V7.69965ZM194.726 8.73894L193.653 9.32945C193.452 9.11845 193.252 8.972 193.053 8.89011C192.858 8.80823 192.628 8.76729 192.364 8.76729C191.882 8.76729 191.491 8.91216 191.192 9.2019C190.896 9.4885 190.748 9.85698 190.748 10.3073C190.748 10.7451 190.891 11.1026 191.178 11.3797C191.465 11.6568 191.841 11.7954 192.307 11.7954C192.883 11.7954 193.332 11.5986 193.653 11.2049L194.669 11.8994C194.118 12.6143 193.34 12.9717 192.335 12.9717C191.431 12.9717 190.723 12.704 190.209 12.1686C189.699 11.6332 189.444 11.0065 189.444 10.2884C189.444 9.79084 189.569 9.3326 189.817 8.91374C190.066 8.49487 190.413 8.16576 190.857 7.9264C191.304 7.68705 191.803 7.56737 192.354 7.56737C192.864 7.56737 193.323 7.66973 193.729 7.87444C194.135 8.076 194.467 8.36417 194.726 8.73894ZM199.691 7.69965H200.976V12.8394H199.691V12.2962C199.439 12.5355 199.185 12.7087 198.93 12.8158C198.678 12.9198 198.404 12.9717 198.108 12.9717C197.444 12.9717 196.869 12.715 196.384 12.2017C195.899 11.6852 195.656 11.0443 195.656 10.279C195.656 9.48535 195.891 8.835 196.36 8.32795C196.829 7.8209 197.4 7.56737 198.07 7.56737C198.379 7.56737 198.669 7.62564 198.94 7.74216C199.21 7.85869 199.461 8.03348 199.691 8.26654V7.69965ZM198.335 8.75784C197.935 8.75784 197.603 8.89956 197.338 9.18301C197.074 9.4633 196.941 9.82391 196.941 10.2648C196.941 10.7089 197.075 11.0742 197.343 11.3608C197.614 11.6474 197.946 11.7907 198.34 11.7907C198.746 11.7907 199.083 11.6505 199.351 11.3703C199.618 11.0868 199.752 10.7168 199.752 10.2601C199.752 9.81288 199.618 9.45071 199.351 9.17356C199.083 8.89641 198.744 8.75784 198.335 8.75784Z" fill="#3DB54A"/>
<path d="M180.955 16.1054L180.024 17.0266C179.435 16.403 178.749 16.0912 177.965 16.0912C177.281 16.0912 176.708 16.318 176.245 16.7715C175.785 17.225 175.555 17.7761 175.555 18.4249C175.555 19.0957 175.795 19.6642 176.273 20.1303C176.752 20.5964 177.343 20.8295 178.045 20.8295C178.502 20.8295 178.886 20.7334 179.198 20.5413C179.513 20.3492 179.766 20.0484 179.958 19.639H177.946V18.3966H181.442L181.451 18.6895C181.451 19.2973 181.294 19.8736 180.979 20.4185C180.664 20.9633 180.256 21.379 179.755 21.6656C179.254 21.9522 178.667 22.0955 177.993 22.0955C177.272 22.0955 176.628 21.9396 176.061 21.6278C175.497 21.3129 175.05 20.8657 174.719 20.2862C174.392 19.7067 174.228 19.0816 174.228 18.4107C174.228 17.4911 174.532 16.6912 175.14 16.0109C175.861 15.2015 176.799 14.7968 177.955 14.7968C178.56 14.7968 179.125 14.9086 179.651 15.1322C180.095 15.3212 180.53 15.6456 180.955 16.1054ZM184.937 16.6487C185.422 16.6487 185.878 16.7699 186.303 17.0124C186.731 17.2549 187.065 17.584 187.304 17.9997C187.544 18.4155 187.663 18.8643 187.663 19.3461C187.663 19.8311 187.542 20.2846 187.299 20.7066C187.06 21.1287 186.733 21.4593 186.317 21.6987C185.901 21.9349 185.443 22.053 184.942 22.053C184.205 22.053 183.575 21.7916 183.053 21.2688C182.533 20.7429 182.273 20.1051 182.273 19.3556C182.273 18.5525 182.568 17.8832 183.156 17.3478C183.673 16.8817 184.267 16.6487 184.937 16.6487ZM184.956 17.8627C184.556 17.8627 184.223 18.0029 183.955 18.2832C183.69 18.5603 183.558 18.9162 183.558 19.3508C183.558 19.798 183.689 20.1602 183.95 20.4374C184.215 20.7145 184.548 20.8531 184.952 20.8531C185.355 20.8531 185.69 20.7129 185.958 20.4326C186.226 20.1524 186.359 19.7917 186.359 19.3508C186.359 18.9099 186.227 18.5525 185.963 18.2785C185.701 18.0013 185.366 17.8627 184.956 17.8627ZM188.169 16.7809H189.482L190.781 19.8138L192.076 16.7809H193.384L191.197 21.9207H190.361L188.169 16.7809ZM194.301 14.8866H195.585V16.7809H196.351V17.8911H195.585V21.9207H194.301V17.8911H193.639V16.7809H194.301V14.8866ZM202.194 19.724H198.051C198.111 20.0894 198.27 20.3807 198.529 20.598C198.79 20.8121 199.122 20.9192 199.525 20.9192C200.007 20.9192 200.421 20.7507 200.768 20.4137L201.854 20.9239C201.583 21.3082 201.259 21.5932 200.881 21.779C200.503 21.9617 200.054 22.053 199.535 22.053C198.729 22.053 198.072 21.7995 197.565 21.2924C197.058 20.7822 196.804 20.1445 196.804 19.3792C196.804 18.595 197.056 17.9446 197.56 17.4281C198.067 16.9085 198.702 16.6487 199.464 16.6487C200.273 16.6487 200.932 16.9085 201.439 17.4281C201.946 17.9446 202.199 18.628 202.199 19.4784L202.194 19.724ZM200.9 18.7084C200.815 18.4218 200.647 18.1887 200.395 18.0092C200.146 17.8297 199.856 17.7399 199.525 17.7399C199.166 17.7399 198.851 17.8407 198.581 18.0423C198.41 18.1682 198.253 18.3903 198.108 18.7084H200.9ZM208.274 17.8202L207.202 18.4107C207 18.1997 206.8 18.0533 206.602 17.9714C206.407 17.8895 206.177 17.8486 205.912 17.8486C205.43 17.8486 205.04 17.9934 204.741 18.2832C204.445 18.5698 204.297 18.9383 204.297 19.3886C204.297 19.8264 204.44 20.1838 204.727 20.461C205.013 20.7381 205.39 20.8767 205.856 20.8767C206.432 20.8767 206.881 20.6799 207.202 20.2862L208.218 20.9806C207.667 21.6955 206.889 22.053 205.884 22.053C204.98 22.053 204.271 21.7853 203.758 21.2499C203.248 20.7145 202.993 20.0878 202.993 19.3697C202.993 18.8721 203.117 18.4139 203.366 17.995C203.615 17.5762 203.961 17.247 204.405 17.0077C204.853 16.7683 205.352 16.6487 205.903 16.6487C206.413 16.6487 206.871 16.751 207.278 16.9557C207.684 17.1573 208.016 17.4455 208.274 17.8202ZM209.446 14.7968H210.726V17.3006C210.978 17.0833 211.232 16.9211 211.487 16.814C211.742 16.7038 212 16.6487 212.261 16.6487C212.772 16.6487 213.202 16.825 213.551 17.1778C213.85 17.4832 214 17.932 214 18.5241V21.9207H212.729V19.6673C212.729 19.0721 212.701 18.669 212.644 18.458C212.587 18.247 212.49 18.0895 212.351 17.9856C212.216 17.8816 212.047 17.8297 211.846 17.8297C211.584 17.8297 211.359 17.9163 211.17 18.0895C210.984 18.2627 210.855 18.4989 210.783 18.7981C210.745 18.9524 210.726 19.3052 210.726 19.8563V21.9207H209.446V14.7968Z" fill="#3DB54A"/>
<path d="M174.011 24.0528H175.314L176.316 28.4888L177.558 24.0528H178.659L179.916 28.4888L180.908 24.0528H182.212L180.648 31.002H179.377L178.097 26.5094L176.84 31.002H175.584L174.011 24.0528ZM188.258 28.8053H184.115C184.175 29.1706 184.334 29.4619 184.593 29.6792C184.854 29.8934 185.186 30.0005 185.589 30.0005C186.071 30.0005 186.485 29.832 186.832 29.495L187.918 30.0052C187.647 30.3894 187.323 30.6744 186.945 30.8602C186.567 31.0429 186.118 31.1342 185.599 31.1342C184.793 31.1342 184.136 30.8807 183.629 30.3737C183.122 29.8635 182.868 29.2257 182.868 28.4604C182.868 27.6762 183.12 27.0259 183.624 26.5094C184.131 25.9897 184.766 25.7299 185.528 25.7299C186.337 25.7299 186.996 25.9897 187.503 26.5094C188.01 27.0259 188.263 27.7093 188.263 28.5596L188.258 28.8053ZM186.964 27.7896C186.879 27.503 186.711 27.2699 186.459 27.0904C186.21 26.9109 185.92 26.8212 185.589 26.8212C185.23 26.8212 184.915 26.9219 184.645 27.1235C184.474 27.2495 184.317 27.4715 184.172 27.7896H186.964ZM194.456 28.8053H190.313C190.373 29.1706 190.532 29.4619 190.791 29.6792C191.052 29.8934 191.384 30.0005 191.787 30.0005C192.269 30.0005 192.683 29.832 193.03 29.495L194.116 30.0052C193.845 30.3894 193.521 30.6744 193.143 30.8602C192.765 31.0429 192.316 31.1342 191.797 31.1342C190.991 31.1342 190.334 30.8807 189.827 30.3737C189.32 29.8635 189.066 29.2257 189.066 28.4604C189.066 27.6762 189.318 27.0259 189.822 26.5094C190.329 25.9897 190.964 25.7299 191.726 25.7299C192.535 25.7299 193.194 25.9897 193.701 26.5094C194.208 27.0259 194.461 27.7093 194.461 28.5596L194.456 28.8053ZM193.162 27.7896C193.077 27.503 192.909 27.2699 192.657 27.0904C192.408 26.9109 192.118 26.8212 191.787 26.8212C191.428 26.8212 191.113 26.9219 190.843 27.1235C190.672 27.2495 190.515 27.4715 190.37 27.7896H193.162ZM195.515 23.8781H196.804V27.9833L198.703 25.8622H200.319L198.108 28.3281L200.588 31.002H198.987L196.804 28.6352V31.002H195.515V23.8781Z" fill="#3DB54A"/>
<path d="M175.433 35.3733H174.143C174.178 34.6238 174.412 34.0349 174.847 33.6065C175.285 33.1751 175.845 32.9593 176.529 32.9593C176.951 32.9593 177.322 33.0491 177.643 33.2286C177.968 33.405 178.226 33.6617 178.418 33.9986C178.613 34.3325 178.711 34.6726 178.711 35.019C178.711 35.4316 178.593 35.8757 178.357 36.3512C178.124 36.8268 177.695 37.389 177.072 38.0377L176.292 38.8597H178.768V40.0833H173.954V39.4502L176.103 37.2583C176.623 36.7323 176.968 36.3103 177.138 35.9922C177.311 35.671 177.398 35.3812 177.398 35.123C177.398 34.8553 177.308 34.6348 177.129 34.4616C176.952 34.2852 176.724 34.1971 176.444 34.1971C176.16 34.1971 175.924 34.3026 175.735 34.5136C175.546 34.7246 175.445 35.0112 175.433 35.3733ZM181.857 32.9593C182.364 32.9593 182.801 33.0837 183.166 33.3325C183.534 33.5813 183.818 33.9624 184.016 34.4758C184.218 34.986 184.319 35.6977 184.319 36.6111C184.319 37.5338 184.216 38.2519 184.012 38.7652C183.81 39.2786 183.538 39.6565 183.194 39.899C182.851 40.1384 182.418 40.258 181.895 40.258C181.372 40.258 180.933 40.1368 180.577 39.8943C180.221 39.6518 179.943 39.2833 179.741 38.7889C179.539 38.2944 179.439 37.5905 179.439 36.6772C179.439 35.4017 179.635 34.4773 180.029 33.9042C180.467 33.2743 181.076 32.9593 181.857 32.9593ZM181.89 34.2159C181.667 34.2159 181.468 34.2884 181.295 34.4333C181.122 34.575 180.99 34.8206 180.898 35.1702C180.807 35.5198 180.761 36.0316 180.761 36.7055C180.761 37.5842 180.865 38.192 181.073 38.529C181.284 38.8629 181.557 39.0298 181.89 39.0298C182.212 39.0298 182.467 38.8707 182.656 38.5526C182.886 38.1684 183.001 37.526 183.001 36.6252C183.001 35.7119 182.897 35.082 182.689 34.7356C182.484 34.3892 182.218 34.2159 181.89 34.2159ZM186.279 35.3733H184.989C185.024 34.6238 185.259 34.0349 185.693 33.6065C186.131 33.1751 186.692 32.9593 187.375 32.9593C187.797 32.9593 188.169 33.0491 188.49 33.2286C188.814 33.405 189.073 33.6617 189.265 33.9986C189.46 34.3325 189.558 34.6726 189.558 35.019C189.558 35.4316 189.439 35.8757 189.203 36.3512C188.97 36.8268 188.542 37.389 187.918 38.0377L187.139 38.8597H189.614V40.0833H184.8V39.4502L186.95 37.2583C187.47 36.7323 187.814 36.3103 187.984 35.9922C188.158 35.671 188.244 35.3812 188.244 35.123C188.244 34.8553 188.155 34.6348 187.975 34.4616C187.799 34.2852 187.57 34.1971 187.29 34.1971C187.007 34.1971 186.77 34.3026 186.581 34.5136C186.392 34.7246 186.292 35.0112 186.279 35.3733ZM192.822 32.9593L193.946 33.5215L192.732 35.8835C193.321 35.8835 193.822 36.0946 194.234 36.5166C194.647 36.9386 194.853 37.463 194.853 38.0897C194.853 38.6944 194.641 39.2077 194.216 39.6297C193.793 40.0486 193.283 40.258 192.685 40.258C192.058 40.258 191.535 40.0407 191.117 39.6061C190.701 39.1684 190.493 38.6676 190.493 38.1039C190.493 37.8897 190.524 37.674 190.587 37.4567C190.654 37.2394 190.803 36.9055 191.036 36.4552L192.822 32.9593ZM192.657 37.1354C192.411 37.1354 192.205 37.2252 192.038 37.4047C191.871 37.5811 191.787 37.8031 191.787 38.0708C191.787 38.3385 191.874 38.5637 192.047 38.7463C192.224 38.929 192.428 39.0203 192.661 39.0203C192.907 39.0203 193.118 38.9306 193.294 38.7511C193.471 38.5715 193.559 38.3448 193.559 38.0708C193.559 37.8031 193.472 37.5811 193.299 37.4047C193.129 37.2252 192.915 37.1354 192.657 37.1354Z" fill="white"/>
</svg>
