<svg width="303" height="40" viewBox="0 0 303 40" fill="none" xmlns="http://www.w3.org/2000/svg">
<path d="M33.4234 32.3485H0.177734L16.7996 1.73741L33.4234 32.3485Z" fill="white"/>
<path d="M59.5711 17.6068C59.4503 20.7896 58.3383 23.8552 56.3905 26.3754C54.4427 28.8955 51.7565 30.7444 48.7069 31.6637C45.6573 32.583 42.3968 32.5268 39.3807 31.5031C36.3646 30.4793 33.7436 28.539 31.8837 25.9533C30.0239 23.3676 29.0181 20.2655 29.0069 17.0804C28.9957 13.8953 29.9796 10.7863 31.8212 8.18753C33.6628 5.58878 36.2701 3.63012 39.2789 2.58514C42.2877 1.54016 45.5478 1.46105 48.6037 2.35886L43.0684 18.3057L59.5711 17.6068Z" fill="white"/>
<path d="M144.631 29.416C151.192 29.416 156.511 24.0968 156.511 17.5353C156.511 10.9737 151.192 5.65458 144.631 5.65458C138.069 5.65458 132.75 10.9737 132.75 17.5353C132.75 24.0968 138.069 29.416 144.631 29.416Z" fill="white"/>
<path d="M128.62 21.0237C128.623 25.5418 126.835 29.8769 123.647 33.0791C120.46 36.2814 116.133 38.0898 111.615 38.1082V3.93924C116.133 3.95763 120.46 5.76602 123.647 8.96827C126.835 12.1705 128.623 16.5055 128.62 21.0237Z" fill="white"/>
<path d="M39.1729 19.1137H60.9409V11.1046L39.1729 19.1137Z" fill="#3DB54A"/>
<path d="M108.014 38.8626H134.4V26.8052L108.014 38.8626Z" fill="#3DB54A"/>
<path d="M107.305 14.8808V4.76715H100.972L107.305 14.8808Z" fill="#3DB54A"/>
<path d="M21.5949 19.1137H3.50781V11.1046L21.5949 19.1137Z" fill="#3DB54A"/>
<path d="M69.4375 3.62952H98.8156L84.1276 32.3485L69.4375 3.62952Z" fill="#3DB54A"/>
<path d="M58.8213 3.62952H88.1994L73.5094 32.3485L58.8213 3.62952Z" fill="white"/>
<path d="M134.463 0.665302V1.84266V17.716L154.797 0.838038" fill="#3DB54A"/>
<path d="M172.326 3.19298H173.668L176.342 10.1421H174.967L174.424 8.7107H171.589L171.022 10.1421H169.647L172.326 3.19298ZM173.006 5.03537L172.08 7.42103H173.928L173.006 5.03537ZM176.616 5.0023H177.074C177.077 4.32833 177.088 3.92994 177.107 3.80711C177.141 3.52367 177.26 3.30006 177.461 3.13629C177.666 2.96937 177.954 2.88592 178.326 2.88592C178.593 2.88592 178.896 2.94733 179.233 3.07015V4.05276C179.047 3.99922 178.894 3.97245 178.774 3.97245C178.623 3.97245 178.513 4.00395 178.444 4.06693C178.393 4.11417 178.368 4.21181 178.368 4.35983L178.363 5.0023H179.181V6.09829H178.363V10.1421H177.074V6.09829H176.616V5.0023ZM179.639 5.0023H180.744V5.6495C180.864 5.3944 181.023 5.20071 181.221 5.06844C181.42 4.93616 181.637 4.87003 181.873 4.87003C182.04 4.87003 182.215 4.91412 182.398 5.0023L181.996 6.11246C181.845 6.03687 181.721 5.99908 181.623 5.99908C181.425 5.99908 181.256 6.12191 181.118 6.36756C180.982 6.61321 180.914 7.09507 180.914 7.81312L180.919 8.0635V10.1421H179.639V5.0023ZM183.546 2.88592C183.772 2.88592 183.966 2.9678 184.127 3.13157C184.291 3.29533 184.372 3.49375 184.372 3.7268C184.372 3.95671 184.292 4.15354 184.132 4.31731C183.971 4.47793 183.779 4.55824 183.555 4.55824C183.325 4.55824 183.128 4.47635 182.965 4.31259C182.804 4.14567 182.724 3.94411 182.724 3.7079C182.724 3.48115 182.804 3.28746 182.965 3.12684C183.125 2.96622 183.319 2.88592 183.546 2.88592ZM182.899 5.0023H184.193V10.1421H182.899V5.0023ZM190.396 6.0416L189.323 6.63211C189.122 6.4211 188.922 6.27465 188.723 6.19277C188.528 6.11088 188.298 6.06994 188.034 6.06994C187.552 6.06994 187.161 6.21481 186.862 6.50456C186.566 6.79115 186.418 7.15963 186.418 7.60999C186.418 8.04775 186.561 8.40521 186.848 8.68235C187.134 8.9595 187.511 9.09807 187.977 9.09807C188.553 9.09807 189.002 8.90124 189.323 8.50756L190.339 9.202C189.788 9.91691 189.01 10.2744 188.005 10.2744C187.101 10.2744 186.393 10.0067 185.879 9.47128C185.369 8.93588 185.114 8.30915 185.114 7.59109C185.114 7.09349 185.239 6.63526 185.487 6.21639C185.736 5.79752 186.083 5.46841 186.527 5.22906C186.974 4.9897 187.473 4.87003 188.024 4.87003C188.534 4.87003 188.993 4.97238 189.399 5.17709C189.805 5.37865 190.137 5.66682 190.396 6.0416ZM195.361 5.0023H196.646V10.1421H195.361V9.59883C195.109 9.83818 194.855 10.0114 194.6 10.1185C194.348 10.2224 194.074 10.2744 193.778 10.2744C193.114 10.2744 192.539 10.0177 192.054 9.50434C191.569 8.98784 191.326 8.34695 191.326 7.58165C191.326 6.788 191.561 6.13765 192.03 5.6306C192.499 5.12355 193.069 4.87003 193.74 4.87003C194.049 4.87003 194.339 4.92829 194.61 5.04482C194.88 5.16134 195.131 5.33614 195.361 5.56919V5.0023ZM194.005 6.06049C193.605 6.06049 193.273 6.20222 193.008 6.48566C192.743 6.76595 192.611 7.12656 192.611 7.56747C192.611 8.01154 192.745 8.37686 193.013 8.66346C193.284 8.95005 193.616 9.09335 194.01 9.09335C194.416 9.09335 194.753 8.9532 195.02 8.67291C195.288 8.38946 195.422 8.01941 195.422 7.56275C195.422 7.11554 195.288 6.75336 195.02 6.47621C194.753 6.19907 194.414 6.06049 194.005 6.06049Z" fill="#3DB54A"/>
<path d="M176.625 13.408L175.694 14.3292C175.105 13.7057 174.419 13.3939 173.635 13.3939C172.951 13.3939 172.378 13.6206 171.915 14.0741C171.455 14.5277 171.225 15.0788 171.225 15.7276C171.225 16.3984 171.465 16.9668 171.943 17.433C172.422 17.8991 173.013 18.1321 173.715 18.1321C174.172 18.1321 174.556 18.0361 174.868 17.844C175.183 17.6518 175.436 17.3511 175.628 16.9417H173.616V15.6992H177.112L177.121 15.9921C177.121 16.5999 176.964 17.1763 176.649 17.7211C176.334 18.266 175.926 18.6817 175.425 18.9683C174.924 19.2549 174.337 19.3982 173.663 19.3982C172.942 19.3982 172.298 19.2423 171.731 18.9305C171.167 18.6156 170.72 18.1683 170.389 17.5889C170.062 17.0094 169.898 16.3842 169.898 15.7134C169.898 14.7938 170.202 13.9938 170.81 13.3136C171.531 12.5042 172.469 12.0995 173.625 12.0995C174.23 12.0995 174.795 12.2113 175.321 12.4349C175.765 12.6238 176.2 12.9482 176.625 13.408ZM180.607 13.9513C181.092 13.9513 181.547 14.0726 181.973 14.3151C182.401 14.5576 182.735 14.8867 182.974 15.3024C183.213 15.7181 183.333 16.1669 183.333 16.6488C183.333 17.1338 183.212 17.5873 182.969 18.0093C182.73 18.4313 182.402 18.762 181.987 19.0013C181.571 19.2376 181.113 19.3557 180.612 19.3557C179.875 19.3557 179.245 19.0943 178.722 18.5715C178.203 18.0455 177.943 17.4078 177.943 16.6582C177.943 15.8551 178.237 15.1859 178.826 14.6505C179.343 14.1844 179.937 13.9513 180.607 13.9513ZM180.626 15.1654C180.226 15.1654 179.892 15.3055 179.625 15.5858C179.36 15.863 179.228 16.2189 179.228 16.6535C179.228 17.1007 179.359 17.4629 179.62 17.74C179.885 18.0172 180.218 18.1557 180.622 18.1557C181.025 18.1557 181.36 18.0156 181.628 17.7353C181.895 17.455 182.029 17.0944 182.029 16.6535C182.029 16.2126 181.897 15.8551 181.632 15.5811C181.371 15.304 181.036 15.1654 180.626 15.1654ZM183.839 14.0836H185.152L186.451 17.1164L187.745 14.0836H189.054L186.867 19.2234H186.031L183.839 14.0836ZM189.97 12.1892H191.255V14.0836H192.021V15.1937H191.255V19.2234H189.97V15.1937H189.309V14.0836H189.97V12.1892ZM197.864 17.0267H193.721C193.781 17.392 193.94 17.6833 194.199 17.9006C194.46 18.1148 194.792 18.2219 195.195 18.2219C195.677 18.2219 196.091 18.0534 196.438 17.7164L197.524 18.2266C197.253 18.6108 196.929 18.8958 196.551 19.0817C196.173 19.2643 195.724 19.3557 195.205 19.3557C194.398 19.3557 193.742 19.1021 193.235 18.5951C192.728 18.0849 192.474 17.4471 192.474 16.6818C192.474 15.8976 192.726 15.2473 193.23 14.7308C193.737 14.2111 194.372 13.9513 195.134 13.9513C195.943 13.9513 196.601 14.2111 197.109 14.7308C197.616 15.2473 197.869 15.9307 197.869 16.781L197.864 17.0267ZM196.57 16.011C196.485 15.7244 196.316 15.4914 196.065 15.3118C195.816 15.1323 195.526 15.0426 195.195 15.0426C194.836 15.0426 194.521 15.1434 194.25 15.3449C194.08 15.4709 193.923 15.6929 193.778 16.011H196.57ZM203.944 15.1229L202.872 15.7134C202.67 15.5024 202.47 15.3559 202.272 15.2741C202.077 15.1922 201.847 15.1512 201.582 15.1512C201.1 15.1512 200.71 15.2961 200.411 15.5858C200.115 15.8724 199.967 16.2409 199.967 16.6913C199.967 17.129 200.11 17.4865 200.396 17.7636C200.683 18.0408 201.059 18.1794 201.526 18.1794C202.102 18.1794 202.551 17.9825 202.872 17.5889L203.888 18.2833C203.336 18.9982 202.559 19.3557 201.554 19.3557C200.65 19.3557 199.941 19.088 199.428 18.5526C198.918 18.0172 198.663 17.3904 198.663 16.6724C198.663 16.1748 198.787 15.7165 199.036 15.2977C199.285 14.8788 199.631 14.5497 200.075 14.3103C200.522 14.071 201.022 13.9513 201.573 13.9513C202.083 13.9513 202.541 14.0537 202.947 14.2584C203.354 14.4599 203.686 14.7481 203.944 15.1229ZM205.116 12.0995H206.396V14.6032C206.648 14.3859 206.902 14.2237 207.157 14.1167C207.412 14.0064 207.67 13.9513 207.931 13.9513C208.442 13.9513 208.871 14.1277 209.221 14.4804C209.52 14.7859 209.67 15.2347 209.67 15.8268V19.2234H208.399V16.97C208.399 16.3748 208.371 15.9716 208.314 15.7606C208.257 15.5496 208.16 15.3922 208.021 15.2882C207.886 15.1843 207.717 15.1323 207.516 15.1323C207.254 15.1323 207.029 15.2189 206.84 15.3922C206.654 15.5654 206.525 15.8016 206.453 16.1008C206.415 16.2551 206.396 16.6078 206.396 17.159V19.2234H205.116V12.0995Z" fill="#3DB54A"/>
<path d="M169.681 21.3555H170.984L171.986 25.7914L173.228 21.3555H174.329L175.586 25.7914L176.578 21.3555H177.882L176.318 28.3046H175.047L173.767 23.812L172.51 28.3046H171.254L169.681 21.3555ZM183.928 26.1079H179.785C179.845 26.4732 180.004 26.7646 180.262 26.9819C180.524 27.196 180.856 27.3031 181.259 27.3031C181.741 27.3031 182.155 27.1346 182.502 26.7976L183.588 27.3078C183.317 27.6921 182.993 27.9771 182.615 28.1629C182.237 28.3456 181.788 28.4369 181.269 28.4369C180.462 28.4369 179.806 28.1834 179.299 27.6763C178.792 27.1661 178.538 26.5284 178.538 25.7631C178.538 24.9789 178.79 24.3285 179.294 23.812C179.801 23.2924 180.436 23.0325 181.198 23.0325C182.007 23.0325 182.665 23.2924 183.173 23.812C183.68 24.3285 183.933 25.0119 183.933 25.8623L183.928 26.1079ZM182.634 25.0922C182.549 24.8057 182.38 24.5726 182.129 24.3931C181.88 24.2136 181.59 24.1238 181.259 24.1238C180.9 24.1238 180.585 24.2246 180.314 24.4261C180.144 24.5521 179.987 24.7742 179.842 25.0922H182.634ZM190.126 26.1079H185.983C186.043 26.4732 186.202 26.7646 186.46 26.9819C186.722 27.196 187.054 27.3031 187.457 27.3031C187.939 27.3031 188.353 27.1346 188.7 26.7976L189.786 27.3078C189.515 27.6921 189.191 27.9771 188.813 28.1629C188.435 28.3456 187.986 28.4369 187.467 28.4369C186.66 28.4369 186.004 28.1834 185.497 27.6763C184.99 27.1661 184.736 26.5284 184.736 25.7631C184.736 24.9789 184.988 24.3285 185.492 23.812C185.999 23.2924 186.634 23.0325 187.396 23.0325C188.205 23.0325 188.863 23.2924 189.371 23.812C189.878 24.3285 190.131 25.0119 190.131 25.8623L190.126 26.1079ZM188.832 25.0922C188.747 24.8057 188.578 24.5726 188.326 24.3931C188.078 24.2136 187.788 24.1238 187.457 24.1238C187.098 24.1238 186.783 24.2246 186.512 24.4261C186.342 24.5521 186.185 24.7742 186.04 25.0922H188.832ZM191.185 21.1807H192.474V25.2859L194.373 23.1648H195.989L193.778 25.6308L196.258 28.3046H194.657L192.474 25.9379V28.3046H191.185V21.1807Z" fill="#3DB54A"/>
<path d="M171.103 32.676H169.813C169.847 31.9264 170.082 31.3375 170.517 30.9092C170.954 30.4777 171.515 30.262 172.198 30.262C172.621 30.262 172.992 30.3518 173.313 30.5313C173.638 30.7076 173.896 30.9643 174.088 31.3013C174.283 31.6351 174.381 31.9753 174.381 32.3217C174.381 32.7343 174.263 33.1783 174.027 33.6539C173.794 34.1294 173.365 34.6916 172.742 35.3404L171.962 36.1624H174.438V37.3859H169.624V36.7529L171.773 34.5609C172.293 34.035 172.638 33.6129 172.808 33.2949C172.981 32.9736 173.068 32.6839 173.068 32.4256C173.068 32.1579 172.978 31.9375 172.798 31.7643C172.622 31.5879 172.394 31.4997 172.113 31.4997C171.83 31.4997 171.594 31.6052 171.405 31.8162C171.216 32.0272 171.115 32.3138 171.103 32.676ZM177.527 30.262C178.034 30.262 178.47 30.3864 178.836 30.6352C179.204 30.884 179.488 31.2651 179.686 31.7784C179.888 32.2886 179.988 33.0004 179.988 33.9137C179.988 34.8365 179.886 35.5545 179.681 36.0679C179.48 36.5812 179.207 36.9592 178.864 37.2017C178.521 37.441 178.088 37.5607 177.565 37.5607C177.042 37.5607 176.603 37.4394 176.247 37.1969C175.891 36.9544 175.612 36.586 175.411 36.0915C175.209 35.5971 175.109 34.8932 175.109 33.9798C175.109 32.7043 175.305 31.78 175.699 31.2068C176.137 30.5769 176.746 30.262 177.527 30.262ZM177.56 31.5186C177.337 31.5186 177.138 31.591 176.965 31.7359C176.792 31.8776 176.66 32.1233 176.568 32.4729C176.477 32.8224 176.431 33.3342 176.431 34.0082C176.431 34.8869 176.535 35.4947 176.743 35.8317C176.954 36.1655 177.226 36.3324 177.56 36.3324C177.882 36.3324 178.137 36.1734 178.326 35.8553C178.556 35.4711 178.67 34.8286 178.67 33.9279C178.67 33.0146 178.567 32.3847 178.359 32.0382C178.154 31.6918 177.888 31.5186 177.56 31.5186ZM181.949 32.676H180.659C180.694 31.9264 180.929 31.3375 181.363 30.9092C181.801 30.4777 182.362 30.262 183.045 30.262C183.467 30.262 183.839 30.3518 184.16 30.5313C184.484 30.7076 184.742 30.9643 184.935 31.3013C185.13 31.6351 185.227 31.9753 185.227 32.3217C185.227 32.7343 185.109 33.1783 184.873 33.6539C184.64 34.1294 184.212 34.6916 183.588 35.3404L182.809 36.1624H185.284V37.3859H180.47V36.7529L182.62 34.5609C183.139 34.035 183.484 33.6129 183.654 33.2949C183.828 32.9736 183.914 32.6839 183.914 32.4256C183.914 32.1579 183.824 31.9375 183.645 31.7643C183.469 31.5879 183.24 31.4997 182.96 31.4997C182.676 31.4997 182.44 31.6052 182.251 31.8162C182.062 32.0272 181.962 32.3138 181.949 32.676ZM187.301 30.4368H190.556V31.6556H188.289L188.005 32.9217C188.084 32.8996 188.161 32.8839 188.237 32.8744C188.312 32.8618 188.385 32.8555 188.454 32.8555C189.084 32.8555 189.607 33.0712 190.022 33.5027C190.441 33.931 190.651 34.4806 190.651 35.1514C190.651 35.8285 190.419 36.4001 189.956 36.8663C189.496 37.3292 188.936 37.5607 188.275 37.5607C187.682 37.5607 187.174 37.3922 186.749 37.0552C186.323 36.7182 186.045 36.2568 185.912 35.6711H187.301C187.408 35.8884 187.549 36.0537 187.722 36.1671C187.898 36.2773 188.092 36.3324 188.303 36.3324C188.596 36.3324 188.845 36.2269 189.049 36.0159C189.254 35.8049 189.356 35.5341 189.356 35.2034C189.356 34.8821 189.26 34.6192 189.068 34.4145C188.879 34.2066 188.649 34.1027 188.378 34.1027C188.234 34.1027 188.09 34.1389 187.949 34.2113C187.81 34.2838 187.673 34.3924 187.538 34.5373L186.46 34.2964L187.301 30.4368Z" fill="white"/>
<line x1="225.637" y1="1.48356" x2="225.637" y2="38.0444" stroke="white" stroke-width="0.830929"/>
<path d="M241.531 5.69893H243.401V12.264H242.161V6.8727H240.808L241.531 5.69893ZM246.655 5.69893H248.525V12.264H247.284V6.8727H245.932L246.655 5.69893ZM251.038 5.6186H252.251V7.40826H252.975V8.45706H252.251V12.264H251.038V8.45706H250.413V7.40826H251.038V5.6186ZM253.635 5.5338H254.844V7.89919C255.083 7.69389 255.322 7.54066 255.563 7.4395C255.804 7.33536 256.048 7.28329 256.295 7.28329C256.777 7.28329 257.183 7.44991 257.513 7.78315C257.796 8.07176 257.937 8.49574 257.937 9.0551V12.264H256.737V10.1351C256.737 9.57281 256.71 9.19197 256.656 8.99262C256.603 8.79328 256.511 8.64451 256.38 8.54632C256.252 8.44814 256.093 8.39904 255.902 8.39904C255.655 8.39904 255.443 8.48087 255.264 8.64451C255.088 8.80815 254.966 9.0313 254.898 9.31396C254.862 9.45975 254.844 9.79299 254.844 10.3137V12.264H253.635V5.5338ZM261.851 9.27825H264.119V10.4119H261.851V9.27825ZM268.97 5.69893H270.84V12.264H269.599V6.8727H268.247L268.97 5.69893ZM274.116 5.69893H277.191V6.85038H275.048L274.781 8.04647C274.855 8.02564 274.928 8.01076 274.999 8.00184C275.071 7.98994 275.139 7.98398 275.205 7.98398C275.8 7.98398 276.294 8.1878 276.686 8.59542C277.082 9.00006 277.28 9.51926 277.28 10.153C277.28 10.7927 277.061 11.3327 276.624 11.7731C276.19 12.2104 275.66 12.4291 275.035 12.4291C274.476 12.4291 273.995 12.27 273.594 11.9516C273.192 11.6332 272.929 11.1973 272.804 10.6439H274.116C274.217 10.8492 274.349 11.0054 274.513 11.1125C274.68 11.2167 274.863 11.2688 275.062 11.2688C275.339 11.2688 275.574 11.1691 275.767 10.9697C275.96 10.7704 276.057 10.5145 276.057 10.2021C276.057 9.89861 275.966 9.65017 275.785 9.45677C275.606 9.2604 275.389 9.16222 275.133 9.16222C274.996 9.16222 274.861 9.19643 274.727 9.26487C274.596 9.3333 274.467 9.43595 274.339 9.57281L273.321 9.3452L274.116 5.69893ZM278.476 5.6186H279.69V7.40826H280.413V8.45706H279.69V12.264H278.476V8.45706H277.851V7.40826H278.476V5.6186ZM281.074 5.5338H282.283V7.89919C282.521 7.69389 282.761 7.54066 283.002 7.4395C283.243 7.33536 283.487 7.28329 283.733 7.28329C284.215 7.28329 284.622 7.44991 284.952 7.78315C285.235 8.07176 285.376 8.49574 285.376 9.0551V12.264H284.175V10.1351C284.175 9.57281 284.149 9.19197 284.095 8.99262C284.041 8.79328 283.949 8.64451 283.818 8.54632C283.69 8.44814 283.531 8.39904 283.341 8.39904C283.094 8.39904 282.881 8.48087 282.703 8.64451C282.527 8.80815 282.405 9.0313 282.337 9.31396C282.301 9.45975 282.283 9.79299 282.283 10.3137V12.264H281.074V5.5338ZM242.777 16.6989H244.044L246.57 23.264H245.271L244.758 21.9117H242.08L241.545 23.264H240.246L242.777 16.6989ZM243.419 18.4395L242.544 20.6933H244.29L243.419 18.4395ZM247.405 18.4083H248.636V20.7469C248.636 21.2021 248.668 21.519 248.73 21.6975C248.793 21.873 248.892 22.0099 249.029 22.1081C249.169 22.2063 249.34 22.2554 249.542 22.2554C249.745 22.2554 249.916 22.2078 250.056 22.1125C250.199 22.0144 250.304 21.8715 250.373 21.6841C250.423 21.5443 250.448 21.2452 250.448 20.787V18.4083H251.671V20.4657C251.671 21.3137 251.604 21.8939 251.47 22.2063C251.307 22.5871 251.066 22.8802 250.747 23.0855C250.429 23.2878 250.024 23.389 249.534 23.389C249.001 23.389 248.57 23.27 248.239 23.0319C247.912 22.7939 247.681 22.4621 247.547 22.0367C247.452 21.7421 247.405 21.2066 247.405 20.43V18.4083ZM256.487 18.4083H257.701V22.5678C257.701 23.389 257.536 23.993 257.205 24.3797C256.762 24.9034 256.094 25.1652 255.202 25.1652C254.725 25.1652 254.325 25.1057 254.001 24.9867C253.677 24.8677 253.403 24.6922 253.18 24.4601C252.957 24.231 252.792 23.9513 252.684 23.621H254.028C254.147 23.7579 254.3 23.8606 254.487 23.929C254.675 24.0004 254.897 24.0361 255.152 24.0361C255.48 24.0361 255.743 23.9855 255.942 23.8844C256.142 23.7832 256.282 23.6523 256.362 23.4916C256.445 23.3309 256.487 23.0542 256.487 22.6615C256.273 22.8757 256.048 23.0304 255.813 23.1256C255.578 23.2179 255.312 23.264 255.014 23.264C254.362 23.264 253.812 23.0289 253.363 22.5588C252.914 22.0887 252.689 21.4937 252.689 20.7736C252.689 20.003 252.927 19.3842 253.403 18.917C253.834 18.4945 254.349 18.2833 254.947 18.2833C255.227 18.2833 255.49 18.3354 255.737 18.4395C255.987 18.5407 256.237 18.7088 256.487 18.9438V18.4083ZM255.224 19.4214C254.84 19.4214 254.523 19.5508 254.273 19.8096C254.023 20.0655 253.898 20.3883 253.898 20.7781C253.898 21.1828 254.026 21.5145 254.282 21.7734C254.538 22.0322 254.859 22.1616 255.246 22.1616C255.624 22.1616 255.935 22.0352 256.179 21.7823C256.426 21.5294 256.549 21.1976 256.549 20.787C256.549 20.3824 256.426 20.0536 256.179 19.8007C255.932 19.5478 255.614 19.4214 255.224 19.4214ZM259.598 21.992C259.791 21.992 259.956 22.0605 260.093 22.1973C260.23 22.3312 260.298 22.4949 260.298 22.6883C260.298 22.8817 260.23 23.0468 260.093 23.1837C259.956 23.3205 259.791 23.389 259.598 23.389C259.404 23.389 259.239 23.3205 259.102 23.1837C258.965 23.0468 258.897 22.8817 258.897 22.6883C258.897 22.4949 258.965 22.3312 259.102 22.1973C259.239 22.0605 259.404 21.992 259.598 21.992ZM265.034 18.8144H263.815C263.848 18.1063 264.07 17.5499 264.48 17.1452C264.894 16.7376 265.423 16.5338 266.069 16.5338C266.468 16.5338 266.819 16.6186 267.122 16.7882C267.429 16.9548 267.673 17.1973 267.854 17.5157C268.039 17.831 268.131 18.1524 268.131 18.4797C268.131 18.8694 268.019 19.289 267.796 19.7382C267.576 20.1875 267.171 20.7186 266.582 21.3315L265.846 22.1081H268.184V23.264H263.637V22.666L265.667 20.5951C266.158 20.0982 266.484 19.6996 266.645 19.399C266.808 19.0956 266.89 18.8218 266.89 18.5779C266.89 18.3249 266.805 18.1167 266.636 17.953C266.469 17.7864 266.253 17.7031 265.989 17.7031C265.721 17.7031 265.498 17.8028 265.319 18.0021C265.141 18.2015 265.045 18.4722 265.034 18.8144ZM271.103 16.5338C271.582 16.5338 271.994 16.6513 272.339 16.8864C272.688 17.1214 272.955 17.4814 273.143 17.9664C273.333 18.4484 273.428 19.1209 273.428 19.9837C273.428 20.8555 273.332 21.5338 273.138 22.0188C272.948 22.5038 272.691 22.8608 272.366 23.0899C272.042 23.3161 271.633 23.4291 271.139 23.4291C270.645 23.4291 270.23 23.3146 269.894 23.0855C269.558 22.8564 269.294 22.5083 269.104 22.0411C268.913 21.574 268.818 20.909 268.818 20.0462C268.818 18.8412 269.004 17.9679 269.376 17.4264C269.79 16.8313 270.365 16.5338 271.103 16.5338ZM271.134 17.721C270.923 17.721 270.736 17.7894 270.572 17.9263C270.408 18.0601 270.283 18.2922 270.197 18.6225C270.111 18.9527 270.068 19.4362 270.068 20.073C270.068 20.9031 270.166 21.4773 270.362 21.7957C270.562 22.1111 270.819 22.2688 271.134 22.2688C271.438 22.2688 271.679 22.1185 271.857 21.818C272.075 21.455 272.183 20.848 272.183 19.9971C272.183 19.1342 272.085 18.5392 271.889 18.2119C271.695 17.8846 271.444 17.721 271.134 17.721ZM275.281 18.8144H274.062C274.095 18.1063 274.317 17.5499 274.727 17.1452C275.141 16.7376 275.67 16.5338 276.316 16.5338C276.715 16.5338 277.066 16.6186 277.369 16.7882C277.676 16.9548 277.92 17.1973 278.101 17.5157C278.286 17.831 278.378 18.1524 278.378 18.4797C278.378 18.8694 278.266 19.289 278.043 19.7382C277.823 20.1875 277.418 20.7186 276.829 21.3315L276.093 22.1081H278.431V23.264H273.884V22.666L275.914 20.5951C276.405 20.0982 276.731 19.6996 276.892 19.399C277.055 19.0956 277.137 18.8218 277.137 18.5779C277.137 18.3249 277.052 18.1167 276.883 17.953C276.716 17.7864 276.5 17.7031 276.236 17.7031C275.968 17.7031 275.745 17.8028 275.566 18.0021C275.388 18.2015 275.292 18.4722 275.281 18.8144ZM280.337 16.6989H283.412V17.8504H281.27L281.002 19.0465C281.077 19.0256 281.149 19.0108 281.221 19.0018C281.292 18.9899 281.361 18.984 281.426 18.984C282.021 18.984 282.515 19.1878 282.908 19.5954C283.304 20.0001 283.501 20.5193 283.501 21.153C283.501 21.7927 283.283 22.3327 282.845 22.7731C282.411 23.2104 281.881 23.4291 281.257 23.4291C280.697 23.4291 280.217 23.27 279.815 22.9516C279.413 22.6332 279.15 22.1973 279.025 21.6439H280.337C280.438 21.8492 280.571 22.0054 280.734 22.1125C280.901 22.2167 281.084 22.2688 281.283 22.2688C281.56 22.2688 281.795 22.1691 281.988 21.9697C282.182 21.7704 282.279 21.5145 282.279 21.2021C282.279 20.8986 282.188 20.6502 282.006 20.4568C281.828 20.2604 281.611 20.1622 281.355 20.1622C281.218 20.1622 281.082 20.1964 280.949 20.2649C280.818 20.3333 280.688 20.4359 280.56 20.5728L279.543 20.3452L280.337 16.6989ZM242.777 27.6989H244.044L246.57 34.264H245.271L244.758 32.9117H242.08L241.545 34.264H240.246L242.777 27.6989ZM243.419 29.4395L242.544 31.6933H244.29L243.419 29.4395ZM248.619 27.5338V29.9438C248.839 29.7236 249.077 29.5585 249.333 29.4484C249.589 29.3383 249.862 29.2833 250.154 29.2833C250.788 29.2833 251.326 29.5228 251.769 30.0018C252.213 30.4809 252.434 31.0953 252.434 31.8451C252.434 32.5681 252.205 33.1735 251.747 33.6615C251.289 34.1465 250.746 34.389 250.118 34.389C249.839 34.389 249.578 34.3399 249.337 34.2417C249.096 34.1405 248.857 33.9769 248.619 33.7508V34.264H247.409V27.5338H248.619ZM249.899 30.408C249.516 30.408 249.197 30.5389 248.944 30.8007C248.692 31.0625 248.565 31.4047 248.565 31.8272C248.565 32.2586 248.692 32.6082 248.944 32.876C249.197 33.1408 249.516 33.2732 249.899 33.2732C250.271 33.2732 250.584 33.1378 250.837 32.8671C251.093 32.5963 251.221 32.2512 251.221 31.8317C251.221 31.4151 251.096 31.0744 250.846 30.8096C250.596 30.5419 250.28 30.408 249.899 30.408ZM253.439 29.4083H254.67V31.7469C254.67 32.2021 254.702 32.519 254.764 32.6975C254.827 32.873 254.926 33.0099 255.063 33.1081C255.203 33.2063 255.374 33.2554 255.576 33.2554C255.779 33.2554 255.95 33.2078 256.09 33.1125C256.232 33.0144 256.338 32.8715 256.407 32.6841C256.457 32.5443 256.482 32.2452 256.482 31.787V29.4083H257.705V31.4657C257.705 32.3137 257.638 32.8939 257.504 33.2063C257.341 33.5871 257.1 33.8802 256.781 34.0855C256.463 34.2878 256.058 34.389 255.568 34.389C255.035 34.389 254.603 34.27 254.273 34.0319C253.946 33.7939 253.715 33.4621 253.581 33.0367C253.486 32.7421 253.439 32.2066 253.439 31.43V29.4083ZM259.504 27.4088C259.721 27.4088 259.906 27.4862 260.057 27.6409C260.212 27.7956 260.289 27.9831 260.289 28.2032C260.289 28.4204 260.213 28.6064 260.062 28.7611C259.91 28.9158 259.729 28.9932 259.517 28.9932C259.3 28.9932 259.114 28.9144 258.959 28.7567C258.808 28.599 258.732 28.4085 258.732 28.1854C258.732 27.9712 258.806 27.7882 258.955 27.6364C259.107 27.4847 259.29 27.4088 259.504 27.4088ZM258.897 29.4083H260.115V34.4247C260.115 34.8858 260.069 35.2295 259.977 35.4556C259.888 35.6847 259.745 35.8603 259.548 35.9823C259.352 36.1042 259.116 36.1652 258.839 36.1652C258.595 36.1652 258.291 36.1042 257.928 35.9823V35.0227C258.119 35.1149 258.287 35.1611 258.433 35.1611C258.587 35.1611 258.704 35.1149 258.781 35.0227C258.858 34.9305 258.897 34.7609 258.897 34.5139V29.4083ZM264.895 29.4083H266.109V34.264H264.895V33.7508C264.657 33.9769 264.418 34.1405 264.177 34.2417C263.939 34.3399 263.68 34.389 263.4 34.389C262.772 34.389 262.229 34.1465 261.771 33.6615C261.313 33.1735 261.084 32.5681 261.084 31.8451C261.084 31.0953 261.305 30.4809 261.749 30.0018C262.192 29.5228 262.731 29.2833 263.364 29.2833C263.656 29.2833 263.93 29.3383 264.186 29.4484C264.441 29.5585 264.678 29.7236 264.895 29.9438V29.4083ZM263.614 30.408C263.236 30.408 262.923 30.5419 262.673 30.8096C262.423 31.0744 262.298 31.4151 262.298 31.8317C262.298 32.2512 262.424 32.5963 262.677 32.8671C262.933 33.1378 263.247 33.2732 263.619 33.2732C264.003 33.2732 264.321 33.1408 264.574 32.876C264.827 32.6082 264.953 32.2586 264.953 31.8272C264.953 31.4047 264.827 31.0625 264.574 30.8007C264.321 30.5389 264.001 30.408 263.614 30.408ZM270.041 27.6989H271.237L274.053 32.0191V27.6989H275.303V34.264H274.102L271.291 29.9572V34.264H270.041V27.6989ZM277.146 27.4088C277.36 27.4088 277.543 27.4862 277.695 27.6409C277.85 27.7956 277.927 27.9831 277.927 28.2032C277.927 28.4204 277.851 28.6064 277.7 28.7611C277.548 28.9129 277.366 28.9887 277.155 28.9887C276.938 28.9887 276.752 28.9114 276.597 28.7567C276.445 28.599 276.37 28.4085 276.37 28.1854C276.37 27.9712 276.445 27.7882 276.597 27.6364C276.749 27.4847 276.932 27.4088 277.146 27.4088ZM276.535 29.4083H277.758V34.264H276.535V29.4083ZM282.453 29.4083H283.667V33.5678C283.667 34.389 283.501 34.993 283.171 35.3797C282.728 35.9034 282.06 36.1652 281.167 36.1652C280.691 36.1652 280.291 36.1057 279.967 35.9867C279.642 35.8677 279.369 35.6922 279.146 35.4601C278.922 35.231 278.757 34.9513 278.65 34.621H279.993C280.113 34.7579 280.266 34.8606 280.453 34.929C280.641 35.0004 280.862 35.0361 281.118 35.0361C281.445 35.0361 281.709 34.9855 281.908 34.8844C282.107 34.7832 282.247 34.6523 282.328 34.4916C282.411 34.3309 282.453 34.0542 282.453 33.6615C282.238 33.8757 282.014 34.0304 281.779 34.1256C281.544 34.2179 281.277 34.264 280.98 34.264C280.328 34.264 279.778 34.0289 279.329 33.5588C278.879 33.0887 278.655 32.4937 278.655 31.7736C278.655 31.003 278.893 30.3842 279.369 29.917C279.8 29.4945 280.315 29.2833 280.913 29.2833C281.193 29.2833 281.456 29.3354 281.703 29.4395C281.953 29.5407 282.203 29.7088 282.453 29.9438V29.4083ZM281.19 30.4214C280.806 30.4214 280.489 30.5508 280.239 30.8096C279.989 31.0655 279.864 31.3883 279.864 31.7781C279.864 32.1828 279.992 32.5145 280.248 32.7734C280.504 33.0322 280.825 33.1616 281.212 33.1616C281.59 33.1616 281.901 33.0352 282.145 32.7823C282.392 32.5294 282.515 32.1976 282.515 31.787C282.515 31.3824 282.392 31.0536 282.145 30.8007C281.898 30.5478 281.579 30.4214 281.19 30.4214ZM289.763 32.1887H285.849C285.905 32.5338 286.056 32.8091 286.3 33.0144C286.547 33.2167 286.861 33.3178 287.241 33.3178C287.697 33.3178 288.088 33.1587 288.415 32.8403L289.442 33.3223C289.186 33.6853 288.879 33.9546 288.522 34.1301C288.165 34.3027 287.741 34.389 287.25 34.389C286.489 34.389 285.868 34.1494 285.389 33.6704C284.91 33.1884 284.671 32.5859 284.671 31.8629C284.671 31.122 284.909 30.5076 285.385 30.0197C285.864 29.5288 286.463 29.2833 287.183 29.2833C287.948 29.2833 288.57 29.5288 289.049 30.0197C289.528 30.5076 289.767 31.1533 289.767 31.9566L289.763 32.1887ZM288.54 31.2292C288.46 30.9584 288.301 30.7382 288.063 30.5686C287.828 30.399 287.554 30.3142 287.241 30.3142C286.902 30.3142 286.605 30.4095 286.349 30.5999C286.188 30.7189 286.039 30.9287 285.903 31.2292H288.54ZM290.468 29.4083H291.512V30.0197C291.626 29.7787 291.776 29.5957 291.963 29.4707C292.151 29.3458 292.356 29.2833 292.579 29.2833C292.737 29.2833 292.902 29.3249 293.075 29.4083L292.695 30.4571C292.552 30.3857 292.435 30.35 292.343 30.35C292.155 30.35 291.996 30.466 291.865 30.6981C291.737 30.9301 291.673 31.3854 291.673 32.0637L291.678 32.3003V34.264H290.468V29.4083ZM294.159 27.4088C294.373 27.4088 294.556 27.4862 294.708 27.6409C294.863 27.7956 294.94 27.9831 294.94 28.2032C294.94 28.4204 294.864 28.6064 294.712 28.7611C294.561 28.9129 294.379 28.9887 294.168 28.9887C293.951 28.9887 293.765 28.9114 293.61 28.7567C293.458 28.599 293.382 28.4085 293.382 28.1854C293.382 27.9712 293.458 27.7882 293.61 27.6364C293.762 27.4847 293.945 27.4088 294.159 27.4088ZM293.548 29.4083H294.77V34.264H293.548V29.4083ZM299.466 29.4083H300.679V34.264H299.466V33.7508C299.228 33.9769 298.988 34.1405 298.747 34.2417C298.509 34.3399 298.25 34.389 297.97 34.389C297.343 34.389 296.8 34.1465 296.341 33.6615C295.883 33.1735 295.654 32.5681 295.654 31.8451C295.654 31.0953 295.876 30.4809 296.319 30.0018C296.762 29.5228 297.301 29.2833 297.935 29.2833C298.226 29.2833 298.5 29.3383 298.756 29.4484C299.012 29.5585 299.248 29.7236 299.466 29.9438V29.4083ZM298.185 30.408C297.807 30.408 297.493 30.5419 297.243 30.8096C296.993 31.0744 296.868 31.4151 296.868 31.8317C296.868 32.2512 296.995 32.5963 297.247 32.8671C297.503 33.1378 297.817 33.2732 298.189 33.2732C298.573 33.2732 298.891 33.1408 299.144 32.876C299.397 32.6082 299.524 32.2586 299.524 31.8272C299.524 31.4047 299.397 31.0625 299.144 30.8007C298.891 30.5389 298.571 30.408 298.185 30.408Z" fill="white"/>
</svg>
