<svg width="33" height="27" viewBox="0 0 33 27" fill="none" xmlns="http://www.w3.org/2000/svg">
<path d="M23.8997 9.39062C23.2313 9.39062 22.6633 9.15365 22.1954 8.67969C21.7276 8.20573 21.4937 7.63021 21.4937 6.95312C21.4937 6.27604 21.7276 5.70052 22.1954 5.22656C22.6633 4.7526 23.2313 4.51562 23.8997 4.51562C24.568 4.51562 25.1361 4.7526 25.6039 5.22656C26.0718 5.70052 26.3057 6.27604 26.3057 6.95312C26.3057 7.63021 26.0718 8.20573 25.6039 8.67969C25.1361 9.15365 24.568 9.39062 23.8997 9.39062ZM9.4636 9.39062C8.79526 9.39062 8.22717 9.15365 7.75933 8.67969C7.2915 8.20573 7.05758 7.63021 7.05758 6.95312C7.05758 6.27604 7.2915 5.70052 7.75933 5.22656C8.22717 4.7526 8.79526 4.51562 9.4636 4.51562C10.1319 4.51562 10.7 4.7526 11.1679 5.22656C11.6357 5.70052 11.8696 6.27604 11.8696 6.95312C11.8696 7.63021 11.6357 8.20573 11.1679 8.67969C10.7 9.15365 10.1319 9.39062 9.4636 9.39062ZM16.6816 13.8594C16.0133 13.8594 15.4452 13.6224 14.9774 13.1484C14.5095 12.6745 14.2756 12.099 14.2756 11.4219C14.2756 10.7448 14.5095 10.1693 14.9774 9.69531C15.4452 9.22135 16.0133 8.98438 16.6816 8.98438C17.35 8.98438 17.9181 9.22135 18.3859 9.69531C18.8537 10.1693 19.0877 10.7448 19.0877 11.4219C19.0877 12.099 18.8537 12.6745 18.3859 13.1484C17.9181 13.6224 17.35 13.8594 16.6816 13.8594ZM16.6816 4.92188C16.0133 4.92188 15.4452 4.6849 14.9774 4.21094C14.5095 3.73698 14.2756 3.16146 14.2756 2.48438C14.2756 1.80729 14.5095 1.23177 14.9774 0.757812C15.4452 0.283854 16.0133 0.046875 16.6816 0.046875C17.35 0.046875 17.9181 0.283854 18.3859 0.757812C18.8537 1.23177 19.0877 1.80729 19.0877 2.48438C19.0877 3.16146 18.8537 3.73698 18.3859 4.21094C17.9181 4.6849 17.35 4.92188 16.6816 4.92188ZM16.6816 26.0469C16.147 26.0469 15.6056 26.0063 15.0576 25.925C14.5095 25.8438 13.9816 25.7354 13.4736 25.6V19.7906C13.4736 18.8427 13.7877 18.0234 14.416 17.3328C15.0442 16.6422 15.7994 16.2969 16.6816 16.2969C17.5638 16.2969 18.3191 16.6422 18.9473 17.3328C19.5755 18.0234 19.8897 18.8427 19.8897 19.7906V25.6C19.3817 25.7354 18.8537 25.8438 18.3057 25.925C17.7577 26.0063 17.2163 26.0469 16.6816 26.0469ZM11.0676 24.7469C10.5329 24.5302 10.0183 24.2865 9.52375 24.0156C9.02918 23.7448 8.55466 23.4469 8.10019 23.1219C7.35165 22.5802 6.75683 21.876 6.31573 21.0094C5.87462 20.1427 5.65407 19.2219 5.65407 18.2469C5.65407 17.5427 5.58055 16.8859 5.43352 16.2766C5.28649 15.6672 5.02583 15.0917 4.65157 14.55C4.38423 14.1979 3.88298 13.663 3.14781 12.9453C2.41263 12.2276 1.73761 11.5573 1.12274 10.9344C0.828675 10.6365 0.681641 10.2573 0.681641 9.79688C0.681641 9.33646 0.828675 8.95729 1.12274 8.65938C1.41681 8.36146 1.79108 8.2125 2.24555 8.2125C2.70002 8.2125 3.07429 8.36146 3.36836 8.65938L9.5037 14.55C10.0384 15.0375 10.4327 15.613 10.6867 16.2766C10.9406 16.9401 11.0676 17.624 11.0676 18.3281V24.7469ZM22.2957 24.7469V18.3281C22.2957 17.624 22.4293 16.9333 22.6967 16.2563C22.964 15.5792 23.3516 15.0104 23.8596 14.55L29.9949 8.65938C30.3157 8.36146 30.6967 8.2125 31.1378 8.2125C31.5789 8.2125 31.9465 8.36146 32.2405 8.65938C32.5346 8.95729 32.6816 9.33646 32.6816 9.79688C32.6816 10.2573 32.5346 10.6365 32.2405 10.9344C31.6257 11.5573 30.9506 12.2208 30.2155 12.925C29.4803 13.6292 28.9791 14.1708 28.7117 14.55C28.3374 15.0917 28.0768 15.6672 27.9298 16.2766C27.7827 16.8859 27.7092 17.5427 27.7092 18.2469C27.7092 19.2219 27.4887 20.1495 27.0476 21.0297C26.6065 21.9099 25.9983 22.6208 25.223 23.1625C24.7953 23.4604 24.3341 23.7448 23.8395 24.0156C23.345 24.2865 22.8303 24.5302 22.2957 24.7469Z" fill="#3DB54A"/>
</svg>
