<svg width="23" height="22" viewBox="0 0 23 22" fill="none" xmlns="http://www.w3.org/2000/svg">
<path d="M20.0556 0C20.7039 0 21.3256 0.257539 21.784 0.715961C22.2425 1.17438 22.5 1.79614 22.5 2.44444V19.5556C22.5 20.2039 22.2425 20.8256 21.784 21.284C21.3256 21.7425 20.7039 22 20.0556 22H2.94444C2.29614 22 1.67438 21.7425 1.21596 21.284C0.757539 20.8256 0.5 20.2039 0.5 19.5556V2.44444C0.5 1.79614 0.757539 1.17438 1.21596 0.715961C1.67438 0.257539 2.29614 0 2.94444 0H20.0556ZM19.4444 18.9444V12.4667C19.4444 11.4099 19.0247 10.3965 18.2774 9.64924C17.5302 8.90201 16.5167 8.48222 15.46 8.48222C14.4211 8.48222 13.2111 9.11778 12.6244 10.0711V8.71444H9.21444V18.9444H12.6244V12.9189C12.6244 11.9778 13.3822 11.2078 14.3233 11.2078C14.7771 11.2078 15.2124 11.3881 15.5333 11.709C15.8542 12.0298 16.0344 12.4651 16.0344 12.9189V18.9444H19.4444ZM5.24222 6.79556C5.7868 6.79556 6.30907 6.57922 6.69415 6.19415C7.07922 5.80907 7.29556 5.2868 7.29556 4.74222C7.29556 3.60556 6.37889 2.67667 5.24222 2.67667C4.6944 2.67667 4.16902 2.89429 3.78165 3.28165C3.39429 3.66902 3.17667 4.1944 3.17667 4.74222C3.17667 5.87889 4.10556 6.79556 5.24222 6.79556ZM6.94111 18.9444V8.71444H3.55556V18.9444H6.94111Z" fill="#454545"/>
</svg>
