<svg width="71" height="65" viewBox="0 0 71 65" fill="none" xmlns="http://www.w3.org/2000/svg">
<path d="M33.8095 30.6122L6.7619 13.7701V47.4543H37.1905V54.1911H6.7619C4.90238 54.1911 3.31052 53.5315 1.98631 52.2122C0.662103 50.8929 0 49.3069 0 47.4543V7.03323C0 5.1806 0.662103 3.59463 1.98631 2.27533C3.31052 0.956036 4.90238 0.296387 6.7619 0.296387H60.8571C62.7167 0.296387 64.3085 0.956036 65.6327 2.27533C66.9569 3.59463 67.619 5.1806 67.619 7.03323V30.6122H60.8571V13.7701L33.8095 30.6122ZM33.8095 23.8753L60.8571 7.03323H6.7619L33.8095 23.8753ZM57.4762 64.2964L52.7429 59.5806L58.0679 54.1911H43.9524V47.4543H58.0679L52.6583 42.0648L57.4762 37.349L71 50.8227L57.4762 64.2964ZM6.7619 13.7701V50.8227V30.6122V30.8648V7.03323V13.7701Z" fill="#3DB54A"/>
</svg>
