<svg width="672" height="136" viewBox="0 0 672 136" fill="none" xmlns="http://www.w3.org/2000/svg">
<path d="M100.193 115.751H0L50.0933 23.4985L100.193 115.751Z" fill="#0A331C"/>
<path d="M178.997 71.3259C178.632 80.918 175.281 90.1567 169.411 97.7517C163.541 105.347 155.445 110.919 146.255 113.689C137.064 116.46 127.238 116.29 118.148 113.205C109.059 110.12 101.16 104.272 95.5549 96.4797C89.9499 88.6871 86.9188 79.3385 86.8851 69.7395C86.8513 60.1406 89.8164 50.7708 95.3664 42.939C100.916 35.1071 108.774 29.2043 117.842 26.055C126.909 22.9058 136.734 22.6674 145.944 25.3731L129.262 73.432L178.997 71.3259Z" fill="#0A331C"/>
<path d="M435.338 106.914C455.113 106.914 471.143 90.8841 471.143 71.1096C471.143 51.3351 455.113 35.3047 435.338 35.3047C415.564 35.3047 399.533 51.3351 399.533 71.1096C399.533 90.8841 415.564 106.914 435.338 106.914Z" fill="#0A331C"/>
<path d="M387.088 81.6227C387.096 95.2391 381.707 108.304 372.101 117.954C362.495 127.605 349.456 133.055 335.84 133.11V30.1353C349.456 30.1907 362.495 35.6406 372.101 45.2913C381.707 54.9419 387.096 68.0064 387.088 81.6227Z" fill="#0A331C"/>
<path d="M117.521 75.8657H183.124V51.7285L117.521 75.8657Z" fill="#3DB54A"/>
<path d="M324.984 135.383H404.504V99.0459L324.984 135.383Z" fill="#3DB54A"/>
<path d="M457.636 0.000177184L393.936 59.2897L421.029 88.3979L457.636 0.000177184Z" fill="#3DB54A"/>
<path d="M322.847 63.109V32.6294H303.76L322.847 63.109Z" fill="#3DB54A"/>
<path d="M64.5443 75.8657H10.0352V51.7285L64.5443 75.8657Z" fill="#3DB54A"/>
<path d="M208.729 29.2012H297.265L253 115.752L208.729 29.2012Z" fill="#3DB54A"/>
<path d="M176.73 29.2012H265.267L220.996 115.752L176.73 29.2012Z" fill="#0A331C"/>
<path d="M539.519 9.92554H544.167L553.43 34H548.668L546.786 29.0411H536.966L535.002 34H530.239L539.519 9.92554ZM541.876 16.3083L538.668 24.5732H545.067L541.876 16.3083ZM554.379 16.1937H555.967C555.978 13.8588 556.016 12.4786 556.081 12.0531C556.201 11.0712 556.611 10.2965 557.309 9.72915C558.018 9.15088 559.016 8.86174 560.304 8.86174C561.231 8.86174 562.279 9.0745 563.446 9.50002V12.9042C562.802 12.7187 562.273 12.6259 561.859 12.6259C561.335 12.6259 560.953 12.735 560.713 12.9533C560.538 13.1169 560.451 13.4552 560.451 13.968L560.435 16.1937H563.266V19.9907H560.435V34H555.967V19.9907H554.379V16.1937ZM564.854 16.1937H568.683V18.4359C569.098 17.5521 569.649 16.8811 570.336 16.4229C571.024 15.9646 571.776 15.7355 572.595 15.7355C573.173 15.7355 573.779 15.8882 574.411 16.1937L573.02 20.0398C572.497 19.7779 572.066 19.647 571.727 19.647C571.04 19.647 570.456 20.0725 569.976 20.9235C569.507 21.7746 569.272 23.4439 569.272 25.9315L569.289 26.7989V34H564.854V16.1937ZM578.388 8.86174C579.174 8.86174 579.845 9.14542 580.401 9.71278C580.969 10.2801 581.252 10.9675 581.252 11.7749C581.252 12.5714 580.974 13.2533 580.418 13.8207C579.861 14.3771 579.196 14.6553 578.421 14.6553C577.625 14.6553 576.943 14.3716 576.375 13.8043C575.819 13.226 575.541 12.5277 575.541 11.7094C575.541 10.9239 575.819 10.2529 576.375 9.69641C576.932 9.13997 577.603 8.86174 578.388 8.86174ZM576.146 16.1937H580.631V34H576.146V16.1937ZM602.119 19.7943L598.404 21.84C597.706 21.109 597.013 20.6017 596.326 20.318C595.649 20.0343 594.853 19.8925 593.936 19.8925C592.267 19.8925 590.914 20.3944 589.877 21.3981C588.852 22.391 588.339 23.6676 588.339 25.2278C588.339 26.7444 588.835 27.9827 589.828 28.9429C590.821 29.903 592.125 30.3831 593.74 30.3831C595.736 30.3831 597.291 29.7012 598.404 28.3373L601.923 30.7432C600.013 33.2199 597.318 34.4582 593.838 34.4582C590.707 34.4582 588.252 33.5308 586.473 31.676C584.706 29.8212 583.822 27.65 583.822 25.1623C583.822 23.4384 584.253 21.8509 585.115 20.3998C585.977 18.9487 587.177 17.8085 588.715 16.9793C590.265 16.1501 591.994 15.7355 593.903 15.7355C595.671 15.7355 597.258 16.0901 598.666 16.7993C600.073 17.4976 601.224 18.4959 602.119 19.7943ZM619.32 16.1937H623.771V34H619.32V32.1179C618.447 32.9471 617.569 33.5472 616.685 33.9182C615.812 34.2782 614.863 34.4582 613.837 34.4582C611.535 34.4582 609.544 33.569 607.864 31.7906C606.183 30.0012 605.343 27.7809 605.343 25.1296C605.343 22.3801 606.156 20.127 607.782 18.3704C609.407 16.6138 611.382 15.7355 613.706 15.7355C614.776 15.7355 615.779 15.9373 616.718 16.341C617.656 16.7447 618.523 17.3503 619.32 18.1577V16.1937ZM614.623 19.8597C613.237 19.8597 612.086 20.3507 611.17 21.3327C610.253 22.3037 609.795 23.553 609.795 25.0805C609.795 26.6189 610.259 27.8846 611.186 28.8774C612.124 29.8703 613.275 30.3667 614.639 30.3667C616.047 30.3667 617.214 29.8812 618.141 28.9102C619.069 27.9282 619.533 26.6462 619.533 25.0641C619.533 23.5148 619.069 22.2601 618.141 21.2999C617.214 20.3398 616.041 19.8597 614.623 19.8597Z" fill="#046938"/>
<path d="M554.412 45.3148L551.188 48.5062C549.148 46.3459 546.769 45.2657 544.052 45.2657C541.685 45.2657 539.699 46.0513 538.095 47.6224C536.502 49.1936 535.706 51.1029 535.706 53.3505C535.706 55.6745 536.535 57.6439 538.193 59.2587C539.852 60.8735 541.898 61.6809 544.331 61.6809C545.913 61.6809 547.244 61.3481 548.324 60.6825C549.415 60.017 550.293 58.975 550.959 57.5566H543.987V53.2524H556.098L556.131 54.267C556.131 56.3728 555.585 58.3695 554.494 60.257C553.403 62.1446 551.99 63.5848 550.255 64.5777C548.52 65.5705 546.485 66.067 544.151 66.067C541.652 66.067 539.421 65.5269 537.457 64.4467C535.504 63.3557 533.955 61.8063 532.809 59.7988C531.674 57.7912 531.107 55.6254 531.107 53.3014C531.107 50.1155 532.16 47.3442 534.265 44.9875C536.764 42.1834 540.015 40.7814 544.02 40.7814C546.115 40.7814 548.073 41.1687 549.895 41.9434C551.433 42.5981 552.939 43.7219 554.412 45.3148ZM568.209 47.1969C569.889 47.1969 571.466 47.617 572.938 48.4571C574.422 49.2972 575.579 50.4374 576.408 51.8776C577.237 53.3178 577.652 54.8726 577.652 56.5419C577.652 58.2222 577.232 59.7933 576.392 61.2554C575.562 62.7174 574.428 63.863 572.988 64.6922C571.547 65.5105 569.96 65.9197 568.225 65.9197C565.672 65.9197 563.49 65.0141 561.679 63.2029C559.878 61.3808 558.978 59.1714 558.978 56.5747C558.978 53.7924 559.998 51.4739 562.039 49.6191C563.828 48.0043 565.885 47.1969 568.209 47.1969ZM568.274 51.403C566.888 51.403 565.732 51.8885 564.805 52.8596C563.888 53.8197 563.43 55.0526 563.43 56.5583C563.43 58.1076 563.883 59.3623 564.788 60.3225C565.705 61.2826 566.861 61.7627 568.258 61.7627C569.654 61.7627 570.816 61.2772 571.744 60.3061C572.671 59.3351 573.135 58.0858 573.135 56.5583C573.135 55.0308 572.677 53.7924 571.76 52.8432C570.855 51.8831 569.693 51.403 568.274 51.403ZM579.403 47.6552H583.953L588.453 58.1622L592.938 47.6552H597.471L589.894 65.4614H586.997L579.403 47.6552ZM600.646 41.0924H605.098V47.6552H607.749V51.5012H605.098V65.4614H600.646V51.5012H598.355V47.6552H600.646V41.0924ZM627.994 57.8512H613.641C613.848 59.1169 614.399 60.1261 615.294 60.8789C616.199 61.6209 617.35 61.9918 618.747 61.9918C620.416 61.9918 621.851 61.4081 623.051 60.2407L626.816 62.0082C625.877 63.3393 624.753 64.3267 623.444 64.9704C622.135 65.6033 620.58 65.9197 618.78 65.9197C615.987 65.9197 613.712 65.0414 611.955 63.2847C610.199 61.5172 609.32 59.3078 609.32 56.6565C609.32 53.9397 610.193 51.6867 611.939 49.8973C613.695 48.097 615.894 47.1969 618.534 47.1969C621.338 47.1969 623.619 48.097 625.375 49.8973C627.132 51.6867 628.01 54.0543 628.01 57.0002L627.994 57.8512ZM623.51 54.3325C623.215 53.3396 622.631 52.5322 621.758 51.9103C620.896 51.2884 619.893 50.9775 618.747 50.9775C617.503 50.9775 616.412 51.3266 615.474 52.0249C614.885 52.4613 614.339 53.2305 613.837 54.3325H623.51ZM649.057 51.2557L645.342 53.3014C644.644 52.5704 643.951 52.0631 643.263 51.7794C642.587 51.4957 641.79 51.3539 640.874 51.3539C639.205 51.3539 637.852 51.8558 636.815 52.8596C635.79 53.8524 635.277 55.129 635.277 56.6892C635.277 58.2058 635.773 59.4442 636.766 60.4043C637.759 61.3645 639.063 61.8445 640.678 61.8445C642.674 61.8445 644.229 61.1626 645.342 59.7988L648.861 62.2046C646.951 64.6813 644.256 65.9197 640.776 65.9197C637.644 65.9197 635.189 64.9923 633.411 63.1374C631.643 61.2826 630.76 59.1114 630.76 56.6238C630.76 54.8999 631.191 53.3124 632.053 51.8612C632.915 50.4101 634.115 49.2699 635.653 48.4407C637.202 47.6115 638.932 47.1969 640.841 47.1969C642.609 47.1969 644.196 47.5515 645.604 48.2607C647.011 48.959 648.162 49.9573 649.057 51.2557ZM653.116 40.7814H657.551V49.4554C658.424 48.7026 659.302 48.1407 660.186 47.7697C661.07 47.3878 661.964 47.1969 662.87 47.1969C664.637 47.1969 666.127 47.8079 667.338 49.0299C668.374 50.0882 668.893 51.643 668.893 53.6942V65.4614H664.49V57.6548C664.49 55.5927 664.392 54.1961 664.196 53.4651C663.999 52.7341 663.661 52.1886 663.181 51.8285C662.712 51.4685 662.128 51.2884 661.43 51.2884C660.524 51.2884 659.744 51.5885 659.089 52.1886C658.446 52.7886 657.998 53.6069 657.747 54.6435C657.616 55.1781 657.551 56.4001 657.551 58.3095V65.4614H653.116V40.7814Z" fill="#046938"/>
<path d="M530.354 72.8479H534.871L538.341 88.2156L542.645 72.8479H546.458L550.812 88.2156L554.248 72.8479H558.765L553.348 96.9224H548.946L544.511 81.3582L540.157 96.9224H535.804L530.354 72.8479ZM579.714 89.3121H565.361C565.568 90.5778 566.119 91.587 567.014 92.3399C567.92 93.0818 569.071 93.4528 570.467 93.4528C572.137 93.4528 573.571 92.869 574.771 91.7016L578.536 93.4691C577.597 94.8002 576.474 95.7877 575.164 96.4314C573.855 97.0642 572.3 97.3806 570.5 97.3806C567.707 97.3806 565.432 96.5023 563.675 94.7457C561.919 92.9781 561.04 90.7687 561.04 88.1174C561.04 85.4007 561.913 83.1476 563.659 81.3582C565.416 79.558 567.614 78.6578 570.254 78.6578C573.058 78.6578 575.339 79.558 577.095 81.3582C578.852 83.1476 579.73 85.5152 579.73 88.4611L579.714 89.3121ZM575.23 85.7934C574.935 84.8006 574.351 83.9932 573.479 83.3713C572.617 82.7494 571.613 82.4384 570.467 82.4384C569.223 82.4384 568.132 82.7876 567.194 83.4858C566.605 83.9223 566.059 84.6915 565.557 85.7934H575.23ZM601.186 89.3121H586.833C587.041 90.5778 587.592 91.587 588.486 92.3399C589.392 93.0818 590.543 93.4528 591.939 93.4528C593.609 93.4528 595.044 92.869 596.244 91.7016L600.008 93.4691C599.07 94.8002 597.946 95.7877 596.637 96.4314C595.327 97.0642 593.772 97.3806 591.972 97.3806C589.179 97.3806 586.904 96.5023 585.148 94.7457C583.391 92.9781 582.513 90.7687 582.513 88.1174C582.513 85.4007 583.385 83.1476 585.131 81.3582C586.888 79.558 589.086 78.6578 591.727 78.6578C594.531 78.6578 596.811 79.558 598.568 81.3582C600.324 83.1476 601.203 85.5152 601.203 88.4611L601.186 89.3121ZM596.702 85.7934C596.407 84.8006 595.824 83.9932 594.951 83.3713C594.089 82.7494 593.085 82.4384 591.939 82.4384C590.696 82.4384 589.605 82.7876 588.666 83.4858C588.077 83.9223 587.532 84.6915 587.03 85.7934H596.702ZM604.852 72.2424H609.32V86.4645L615.899 79.1161H621.497L613.837 87.6592L622.429 96.9224H616.881L609.32 88.723V96.9224H604.852V72.2424Z" fill="#046938"/>
<path d="M535.28 112.066H530.812C530.932 109.47 531.745 107.429 533.251 105.945C534.767 104.451 536.709 103.703 539.077 103.703C540.539 103.703 541.827 104.014 542.939 104.636C544.063 105.247 544.958 106.136 545.624 107.304C546.3 108.46 546.638 109.639 546.638 110.839C546.638 112.268 546.229 113.807 545.411 115.454C544.603 117.102 543.12 119.049 540.959 121.297L538.259 124.144H546.835V128.383H530.158V126.19L537.604 118.596C539.404 116.774 540.599 115.312 541.188 114.21C541.788 113.097 542.088 112.094 542.088 111.199C542.088 110.272 541.778 109.508 541.156 108.908C540.545 108.297 539.754 107.991 538.783 107.991C537.801 107.991 536.982 108.357 536.328 109.088C535.673 109.819 535.324 110.812 535.28 112.066ZM557.538 103.703C559.295 103.703 560.806 104.134 562.071 104.996C563.348 105.858 564.33 107.178 565.017 108.957C565.716 110.724 566.065 113.19 566.065 116.354C566.065 119.551 565.71 122.039 565.001 123.817C564.303 125.596 563.359 126.905 562.17 127.745C560.98 128.574 559.48 128.989 557.669 128.989C555.858 128.989 554.336 128.569 553.103 127.729C551.87 126.889 550.904 125.612 550.206 123.899C549.508 122.186 549.159 119.747 549.159 116.583C549.159 112.165 549.841 108.962 551.204 106.977C552.721 104.794 554.832 103.703 557.538 103.703ZM557.653 108.057C556.878 108.057 556.191 108.308 555.59 108.81C554.99 109.3 554.532 110.152 554.216 111.363C553.899 112.574 553.741 114.347 553.741 116.682C553.741 119.726 554.101 121.831 554.821 122.999C555.552 124.155 556.496 124.734 557.653 124.734C558.765 124.734 559.649 124.183 560.304 123.081C561.1 121.75 561.499 119.524 561.499 116.403C561.499 113.239 561.139 111.057 560.418 109.857C559.709 108.657 558.787 108.057 557.653 108.057ZM572.857 112.066H568.389C568.509 109.47 569.322 107.429 570.827 105.945C572.344 104.451 574.286 103.703 576.654 103.703C578.116 103.703 579.403 104.014 580.516 104.636C581.64 105.247 582.534 106.136 583.2 107.304C583.876 108.46 584.215 109.639 584.215 110.839C584.215 112.268 583.806 113.807 582.987 115.454C582.18 117.102 580.696 119.049 578.536 121.297L575.835 124.144H584.411V128.383H567.734V126.19L575.181 118.596C576.981 116.774 578.176 115.312 578.765 114.21C579.365 113.097 579.665 112.094 579.665 111.199C579.665 110.272 579.354 109.508 578.732 108.908C578.121 108.297 577.33 107.991 576.359 107.991C575.377 107.991 574.559 108.357 573.904 109.088C573.249 109.819 572.9 110.812 572.857 112.066ZM595.524 103.703L599.419 105.651L595.213 113.834C597.253 113.834 598.988 114.565 600.417 116.027C601.846 117.489 602.561 119.306 602.561 121.477C602.561 123.572 601.825 125.35 600.352 126.812C598.89 128.263 597.122 128.989 595.049 128.989C592.878 128.989 591.067 128.236 589.615 126.73C588.175 125.214 587.455 123.479 587.455 121.526C587.455 120.784 587.564 120.037 587.782 119.284C588.012 118.531 588.53 117.374 589.337 115.814L595.524 103.703ZM594.951 118.171C594.1 118.171 593.385 118.482 592.807 119.104C592.229 119.715 591.939 120.484 591.939 121.411C591.939 122.339 592.239 123.119 592.84 123.752C593.451 124.385 594.16 124.701 594.967 124.701C595.818 124.701 596.549 124.39 597.16 123.768C597.771 123.146 598.077 122.361 598.077 121.411C598.077 120.484 597.777 119.715 597.177 119.104C596.587 118.482 595.845 118.171 594.951 118.171Z" fill="#0A331C"/>
</svg>
