<svg width="723" height="136" viewBox="0 0 723 136" fill="none" xmlns="http://www.w3.org/2000/svg">
<path d="M115.485 111.289H0.308594L57.8932 5.24072L115.485 111.289Z" fill="#0A331C"/>
<path d="M206.07 60.2186C205.652 71.2451 201.799 81.8655 195.051 90.5963C188.304 99.3271 178.997 105.732 168.432 108.917C157.867 112.102 146.572 111.907 136.123 108.361C125.674 104.814 116.594 98.0921 110.15 89.1341C103.707 80.1762 100.223 69.4294 100.184 58.395C100.145 47.3606 103.554 36.5896 109.934 27.5865C116.314 18.5834 125.346 11.7978 135.77 8.1776C146.194 4.55738 157.488 4.28333 168.075 7.3937L148.898 62.6397L206.07 60.2186Z" fill="#0A331C"/>
<path d="M500.749 101.13C523.481 101.13 541.909 82.7026 541.909 59.9709C541.909 37.2392 523.481 18.8115 500.749 18.8115C478.018 18.8115 459.59 37.2392 459.59 59.9709C459.59 82.7026 478.018 101.13 500.749 101.13Z" fill="#0A331C"/>
<path d="M445.283 72.0559C445.292 87.7086 439.097 102.727 428.055 113.821C417.013 124.915 402.024 131.18 386.371 131.243V12.8687C402.024 12.9324 417.013 19.1973 428.055 30.2912C439.097 41.385 445.292 56.4033 445.283 72.0559Z" fill="#0A331C"/>
<path d="M135.404 65.4392H210.817V37.6924L135.404 65.4392Z" fill="#3DB54A"/>
<path d="M373.893 133.857H465.304V92.0854L373.893 133.857Z" fill="#3DB54A"/>
<path d="M371.438 50.7746V15.7368H349.496L371.438 50.7746Z" fill="#3DB54A"/>
<path d="M74.5045 65.4392H11.8438V37.6924L74.5045 65.4392Z" fill="#3DB54A"/>
<path d="M240.25 11.7959H342.027L291.142 111.29L240.25 11.7959Z" fill="#3DB54A"/>
<path d="M203.471 11.7959H305.248L254.356 111.29L203.471 11.7959Z" fill="#0A331C"/>
<path d="M465.525 1.52637V5.60518V60.5967L535.972 2.12479" fill="#3DB54A"/>
<path d="M596.699 9.92554H601.347L610.61 34H605.847L603.965 29.0411H594.146L592.182 34H587.419L596.699 9.92554ZM599.055 16.3083L595.848 24.5732H602.247L599.055 16.3083ZM611.559 16.1937H613.147C613.157 13.8588 613.196 12.4786 613.261 12.0531C613.381 11.0712 613.79 10.2965 614.489 9.72915C615.198 9.15088 616.196 8.86174 617.484 8.86174C618.411 8.86174 619.458 9.0745 620.626 9.50002V12.9042C619.982 12.7187 619.453 12.6259 619.038 12.6259C618.515 12.6259 618.133 12.735 617.893 12.9533C617.718 13.1169 617.631 13.4552 617.631 13.968L617.614 16.1937H620.446V19.9907H617.614V34H613.147V19.9907H611.559V16.1937ZM622.033 16.1937H625.863V18.4359C626.278 17.5521 626.829 16.8811 627.516 16.4229C628.203 15.9646 628.956 15.7355 629.774 15.7355C630.353 15.7355 630.958 15.8882 631.591 16.1937L630.2 20.0398C629.676 19.7779 629.245 19.647 628.907 19.647C628.22 19.647 627.636 20.0725 627.156 20.9235C626.687 21.7746 626.452 23.4439 626.452 25.9315L626.469 26.7989V34H622.033V16.1937ZM635.568 8.86174C636.354 8.86174 637.025 9.14542 637.581 9.71278C638.148 10.2801 638.432 10.9675 638.432 11.7749C638.432 12.5714 638.154 13.2533 637.597 13.8207C637.041 14.3771 636.375 14.6553 635.601 14.6553C634.804 14.6553 634.122 14.3716 633.555 13.8043C632.999 13.226 632.72 12.5277 632.72 11.7094C632.72 10.9239 632.999 10.2529 633.555 9.69641C634.111 9.13997 634.782 8.86174 635.568 8.86174ZM633.326 16.1937H637.81V34H633.326V16.1937ZM659.299 19.7943L655.584 21.84C654.885 21.109 654.193 20.6017 653.505 20.318C652.829 20.0343 652.032 19.8925 651.116 19.8925C649.446 19.8925 648.094 20.3944 647.057 21.3981C646.031 22.391 645.519 23.6676 645.519 25.2278C645.519 26.7444 646.015 27.9827 647.008 28.9429C648.001 29.903 649.305 30.3831 650.919 30.3831C652.916 30.3831 654.471 29.7012 655.584 28.3373L659.102 30.7432C657.193 33.2199 654.498 34.4582 651.018 34.4582C647.886 34.4582 645.431 33.5308 643.653 31.676C641.885 29.8212 641.002 27.65 641.002 25.1623C641.002 23.4384 641.433 21.8509 642.294 20.3998C643.156 18.9487 644.357 17.8085 645.895 16.9793C647.444 16.1501 649.174 15.7355 651.083 15.7355C652.851 15.7355 654.438 16.0901 655.846 16.7993C657.253 17.4976 658.404 18.4959 659.299 19.7943ZM676.5 16.1937H680.951V34H676.5V32.1179C675.627 32.9471 674.748 33.5472 673.865 33.9182C672.992 34.2782 672.043 34.4582 671.017 34.4582C668.715 34.4582 666.724 33.569 665.043 31.7906C663.363 30.0012 662.523 27.7809 662.523 25.1296C662.523 22.3801 663.336 20.127 664.961 18.3704C666.587 16.6138 668.562 15.7355 670.886 15.7355C671.955 15.7355 672.959 15.9373 673.897 16.341C674.836 16.7447 675.703 17.3503 676.5 18.1577V16.1937ZM671.802 19.8597C670.417 19.8597 669.266 20.3507 668.349 21.3327C667.433 22.3037 666.974 23.553 666.974 25.0805C666.974 26.6189 667.438 27.8846 668.366 28.8774C669.304 29.8703 670.455 30.3667 671.819 30.3667C673.226 30.3667 674.394 29.8812 675.321 28.9102C676.249 27.9282 676.712 26.6462 676.712 25.0641C676.712 23.5148 676.249 22.2601 675.321 21.2999C674.394 20.3398 673.221 19.8597 671.802 19.8597Z" fill="#046938"/>
<path d="M611.592 45.3148L608.368 48.5062C606.327 46.3459 603.949 45.2657 601.232 45.2657C598.864 45.2657 596.879 46.0513 595.275 47.6224C593.682 49.1936 592.885 51.1029 592.885 53.3505C592.885 55.6745 593.715 57.6439 595.373 59.2587C597.031 60.8735 599.077 61.6809 601.51 61.6809C603.092 61.6809 604.423 61.3481 605.504 60.6825C606.595 60.017 607.473 58.975 608.139 57.5566H601.167V53.2524H613.277L613.31 54.267C613.31 56.3728 612.765 58.3695 611.674 60.257C610.583 62.1446 609.17 63.5848 607.435 64.5777C605.7 65.5705 603.665 66.067 601.33 66.067C598.832 66.067 596.6 65.5269 594.637 64.4467C592.684 63.3557 591.134 61.8063 589.989 59.7988C588.854 57.7912 588.287 55.6254 588.287 53.3014C588.287 50.1155 589.339 47.3442 591.445 44.9875C593.944 42.1834 597.195 40.7814 601.199 40.7814C603.294 40.7814 605.253 41.1687 607.075 41.9434C608.613 42.5981 610.119 43.7219 611.592 45.3148ZM625.388 47.1969C627.069 47.1969 628.645 47.617 630.118 48.4571C631.602 49.2972 632.759 50.4374 633.588 51.8776C634.417 53.3178 634.832 54.8726 634.832 56.5419C634.832 58.2222 634.412 59.7933 633.571 61.2554C632.742 62.7174 631.607 63.863 630.167 64.6922C628.727 65.5105 627.14 65.9197 625.405 65.9197C622.852 65.9197 620.669 65.0141 618.858 63.2029C617.058 61.3808 616.158 59.1714 616.158 56.5747C616.158 53.7924 617.178 51.4739 619.218 49.6191C621.008 48.0043 623.064 47.1969 625.388 47.1969ZM625.454 51.403C624.068 51.403 622.912 51.8885 621.984 52.8596C621.068 53.8197 620.609 55.0526 620.609 56.5583C620.609 58.1076 621.062 59.3623 621.968 60.3225C622.884 61.2826 624.041 61.7627 625.437 61.7627C626.834 61.7627 627.996 61.2772 628.923 60.3061C629.851 59.3351 630.315 58.0858 630.315 56.5583C630.315 55.0308 629.856 53.7924 628.94 52.8432C628.034 51.8831 626.872 51.403 625.454 51.403ZM636.583 47.6552H641.133L645.633 58.1622L650.117 47.6552H654.651L647.073 65.4614H644.177L636.583 47.6552ZM657.826 41.0924H662.277V47.6552H664.929V51.5012H662.277V65.4614H657.826V51.5012H655.535V47.6552H657.826V41.0924ZM685.174 57.8512H670.821C671.028 59.1169 671.579 60.1261 672.473 60.8789C673.379 61.6209 674.53 61.9918 675.927 61.9918C677.596 61.9918 679.031 61.4081 680.231 60.2407L683.995 62.0082C683.057 63.3393 681.933 64.3267 680.624 64.9704C679.314 65.6033 677.76 65.9197 675.959 65.9197C673.166 65.9197 670.891 65.0414 669.135 63.2847C667.378 61.5172 666.5 59.3078 666.5 56.6565C666.5 53.9397 667.373 51.6867 669.118 49.8973C670.875 48.097 673.074 47.1969 675.714 47.1969C678.518 47.1969 680.798 48.097 682.555 49.8973C684.312 51.6867 685.19 54.0543 685.19 57.0002L685.174 57.8512ZM680.689 54.3325C680.395 53.3396 679.811 52.5322 678.938 51.9103C678.076 51.2884 677.072 50.9775 675.927 50.9775C674.683 50.9775 673.592 51.3266 672.654 52.0249C672.064 52.4613 671.519 53.2305 671.017 54.3325H680.689ZM706.237 51.2557L702.522 53.3014C701.823 52.5704 701.13 52.0631 700.443 51.7794C699.767 51.4957 698.97 51.3539 698.054 51.3539C696.384 51.3539 695.031 51.8558 693.995 52.8596C692.969 53.8524 692.456 55.129 692.456 56.6892C692.456 58.2058 692.953 59.4442 693.946 60.4043C694.939 61.3645 696.242 61.8445 697.857 61.8445C699.854 61.8445 701.409 61.1626 702.522 59.7988L706.04 62.2046C704.131 64.6813 701.436 65.9197 697.955 65.9197C694.824 65.9197 692.369 64.9923 690.591 63.1374C688.823 61.2826 687.939 59.1114 687.939 56.6238C687.939 54.8999 688.37 53.3124 689.232 51.8612C690.094 50.4101 691.294 49.2699 692.833 48.4407C694.382 47.6115 696.112 47.1969 698.021 47.1969C699.788 47.1969 701.376 47.5515 702.783 48.2607C704.191 48.959 705.342 49.9573 706.237 51.2557ZM710.295 40.7814H714.731V49.4554C715.603 48.7026 716.482 48.1407 717.366 47.7697C718.249 47.3878 719.144 47.1969 720.05 47.1969C721.817 47.1969 723.306 47.8079 724.518 49.0299C725.554 50.0882 726.072 51.643 726.072 53.6942V65.4614H721.67V57.6548C721.67 55.5927 721.572 54.1961 721.375 53.4651C721.179 52.7341 720.841 52.1886 720.361 51.8285C719.891 51.4685 719.308 51.2884 718.609 51.2884C717.704 51.2884 716.924 51.5885 716.269 52.1886C715.625 52.7886 715.178 53.6069 714.927 54.6435C714.796 55.1781 714.731 56.4001 714.731 58.3095V65.4614H710.295V40.7814Z" fill="#046938"/>
<path d="M587.534 72.8479H592.051L595.52 88.2156L599.825 72.8479H603.638L607.991 88.2156L611.428 72.8479H615.945L610.528 96.9224H606.126L601.69 81.3582L597.337 96.9224H592.984L587.534 72.8479ZM636.894 89.3121H622.541C622.748 90.5778 623.299 91.587 624.194 92.3399C625.099 93.0818 626.25 93.4528 627.647 93.4528C629.316 93.4528 630.751 92.869 631.951 91.7016L635.715 93.4691C634.777 94.8002 633.653 95.7877 632.344 96.4314C631.035 97.0642 629.48 97.3806 627.68 97.3806C624.886 97.3806 622.612 96.5023 620.855 94.7457C619.098 92.9781 618.22 90.7687 618.22 88.1174C618.22 85.4007 619.093 83.1476 620.839 81.3582C622.595 79.558 624.794 78.6578 627.434 78.6578C630.238 78.6578 632.519 79.558 634.275 81.3582C636.032 83.1476 636.91 85.5152 636.91 88.4611L636.894 89.3121ZM632.409 85.7934C632.115 84.8006 631.531 83.9932 630.658 83.3713C629.796 82.7494 628.793 82.4384 627.647 82.4384C626.403 82.4384 625.312 82.7876 624.374 83.4858C623.784 83.9223 623.239 84.6915 622.737 85.7934H632.409ZM658.366 89.3121H644.013C644.22 90.5778 644.771 91.587 645.666 92.3399C646.571 93.0818 647.723 93.4528 649.119 93.4528C650.788 93.4528 652.223 92.869 653.423 91.7016L657.188 93.4691C656.249 94.8002 655.125 95.7877 653.816 96.4314C652.507 97.0642 650.952 97.3806 649.152 97.3806C646.359 97.3806 644.084 96.5023 642.327 94.7457C640.571 92.9781 639.692 90.7687 639.692 88.1174C639.692 85.4007 640.565 83.1476 642.311 81.3582C644.067 79.558 646.266 78.6578 648.906 78.6578C651.71 78.6578 653.991 79.558 655.747 81.3582C657.504 83.1476 658.382 85.5152 658.382 88.4611L658.366 89.3121ZM653.882 85.7934C653.587 84.8006 653.003 83.9932 652.13 83.3713C651.269 82.7494 650.265 82.4384 649.119 82.4384C647.875 82.4384 646.784 82.7876 645.846 83.4858C645.257 83.9223 644.711 84.6915 644.209 85.7934H653.882ZM662.032 72.2424H666.5V86.4645L673.079 79.1161H678.676L671.017 87.6592L679.609 96.9224H674.061L666.5 88.723V96.9224H662.032V72.2424Z" fill="#046938"/>
<path d="M592.46 112.066H587.992C588.112 109.47 588.925 107.429 590.43 105.945C591.947 104.451 593.889 103.703 596.257 103.703C597.719 103.703 599.006 104.014 600.119 104.636C601.243 105.247 602.138 106.136 602.803 107.304C603.48 108.46 603.818 109.639 603.818 110.839C603.818 112.268 603.409 113.807 602.59 115.454C601.783 117.102 600.299 119.049 598.139 121.297L595.438 124.144H604.014V128.383H587.337V126.19L594.784 118.596C596.584 116.774 597.779 115.312 598.368 114.21C598.968 113.097 599.268 112.094 599.268 111.199C599.268 110.272 598.957 109.508 598.335 108.908C597.724 108.297 596.933 107.991 595.962 107.991C594.98 107.991 594.162 108.357 593.507 109.088C592.853 109.819 592.504 110.812 592.46 112.066ZM614.718 103.703C616.474 103.703 617.985 104.134 619.251 104.996C620.528 105.858 621.51 107.178 622.197 108.957C622.895 110.724 623.244 113.19 623.244 116.354C623.244 119.551 622.89 122.039 622.181 123.817C621.482 125.596 620.539 126.905 619.349 127.745C618.16 128.574 616.66 128.989 614.849 128.989C613.037 128.989 611.515 128.569 610.282 127.729C609.05 126.889 608.084 125.612 607.386 123.899C606.687 122.186 606.338 119.747 606.338 116.583C606.338 112.165 607.02 108.962 608.384 106.977C609.901 104.794 612.012 103.703 614.718 103.703ZM614.832 108.057C614.058 108.057 613.37 108.308 612.77 108.81C612.17 109.3 611.712 110.152 611.395 111.363C611.079 112.574 610.921 114.347 610.921 116.682C610.921 119.726 611.281 121.831 612.001 122.999C612.732 124.155 613.676 124.734 614.832 124.734C615.945 124.734 616.829 124.183 617.484 123.081C618.28 121.75 618.678 119.524 618.678 116.403C618.678 113.239 618.318 111.057 617.598 109.857C616.889 108.657 615.967 108.057 614.832 108.057ZM630.036 112.066H625.568C625.688 109.47 626.501 107.429 628.007 105.945C629.524 104.451 631.466 103.703 633.833 103.703C635.295 103.703 636.583 104.014 637.696 104.636C638.819 105.247 639.714 106.136 640.38 107.304C641.056 108.46 641.394 109.639 641.394 110.839C641.394 112.268 640.985 113.807 640.167 115.454C639.36 117.102 637.876 119.049 635.715 121.297L633.015 124.144H641.591V128.383H624.914V126.19L632.36 118.596C634.161 116.774 635.355 115.312 635.944 114.21C636.545 113.097 636.845 112.094 636.845 111.199C636.845 110.272 636.534 109.508 635.912 108.908C635.301 108.297 634.51 107.991 633.539 107.991C632.557 107.991 631.738 108.357 631.084 109.088C630.429 109.819 630.08 110.812 630.036 112.066ZM648.579 104.309H659.855V108.531H652L651.018 112.917C651.29 112.841 651.558 112.786 651.82 112.754C652.081 112.71 652.332 112.688 652.572 112.688C654.755 112.688 656.566 113.436 658.006 114.93C659.457 116.414 660.183 118.318 660.183 120.642C660.183 122.988 659.381 124.968 657.777 126.583C656.184 128.187 654.242 128.989 651.95 128.989C649.899 128.989 648.137 128.405 646.664 127.238C645.191 126.07 644.226 124.472 643.767 122.442H648.579C648.95 123.195 649.436 123.768 650.036 124.161C650.647 124.543 651.318 124.734 652.049 124.734C653.063 124.734 653.925 124.368 654.634 123.637C655.344 122.906 655.698 121.968 655.698 120.822C655.698 119.709 655.366 118.798 654.7 118.089C654.045 117.369 653.249 117.009 652.311 117.009C651.809 117.009 651.312 117.134 650.821 117.385C650.341 117.636 649.867 118.013 649.397 118.515L645.666 117.68L648.579 104.309Z" fill="#0A331C"/>
</svg>
