<svg width="33" height="34" viewBox="0 0 33 34" fill="none" xmlns="http://www.w3.org/2000/svg">
<path d="M2.45628 33.1826V27.833H7.95767L3.43233 12.9431C2.63375 12.4973 1.97565 11.8435 1.45805 10.9816C0.940442 10.1197 0.681641 9.19835 0.681641 8.21758C0.681641 6.73157 1.19924 5.46846 2.23445 4.42825C3.26966 3.38804 4.5267 2.86793 6.00556 2.86793C7.15908 2.86793 8.18689 3.20228 9.089 3.87099C9.99111 4.5397 10.6196 5.39416 10.9746 6.43437H16.6534V4.65115C16.6534 4.1459 16.8235 3.72239 17.1636 3.38061C17.5038 3.03882 17.9252 2.86793 18.428 2.86793C18.6942 2.86793 18.953 2.92737 19.2045 3.04625C19.4559 3.16513 19.6703 3.34346 19.8478 3.58122L22.8647 0.728072C23.1308 0.460589 23.4488 0.289698 23.8185 0.215397C24.1882 0.141096 24.5506 0.193107 24.9055 0.371428L31.8266 3.58122C32.1815 3.75954 32.4255 4.01959 32.5586 4.36138C32.6917 4.70316 32.6843 5.03751 32.5364 5.36444C32.359 5.72108 32.1002 5.95141 31.76 6.05543C31.4199 6.15945 31.0872 6.13716 30.7618 5.98856L24.3731 3.04625L20.2027 6.96933V9.46583L24.3731 13.2998L30.7618 10.3574C31.0872 10.2088 31.4273 10.194 31.7822 10.3129C32.1371 10.4317 32.3886 10.6546 32.5364 10.9816C32.7139 11.3382 32.7287 11.68 32.5808 12.0069C32.4329 12.3338 32.1815 12.5865 31.8266 12.7648L24.9055 16.0637C24.5506 16.2421 24.1882 16.2941 23.8185 16.2198C23.4488 16.1455 23.1308 15.9746 22.8647 15.7071L19.8478 12.8539C19.6703 13.0323 19.4559 13.1957 19.2045 13.3443C18.953 13.4929 18.6942 13.5672 18.428 13.5672C17.9252 13.5672 17.5038 13.3963 17.1636 13.0546C16.8235 12.7128 16.6534 12.2893 16.6534 11.784V10.0008H10.9746C10.8858 10.2386 10.7897 10.4615 10.6862 10.6695C10.5827 10.8775 10.4422 11.1004 10.2647 11.3382L19.1379 27.833H25.5266V33.1826H2.45628ZM6.00556 10.0008C6.50838 10.0008 6.92986 9.82991 7.26999 9.48812C7.61013 9.14634 7.7802 8.72283 7.7802 8.21758C7.7802 7.71234 7.61013 7.28882 7.26999 6.94704C6.92986 6.60526 6.50838 6.43437 6.00556 6.43437C5.50275 6.43437 5.08127 6.60526 4.74113 6.94704C4.40099 7.28882 4.23092 7.71234 4.23092 8.21758C4.23092 8.72283 4.40099 9.14634 4.74113 9.48812C5.08127 9.82991 5.50275 10.0008 6.00556 10.0008ZM11.5957 27.833H15.0562L7.42528 13.5672H7.24781L11.5957 27.833Z" fill="#3DB54A"/>
</svg>
